<svg xmlns="http://www.w3.org/2000/svg" version="1.1" xmlns:xlink="http://www.w3.org/1999/xlink" xmlns:svgjs="http://svgjs.dev/svgjs" width="1000" height="1000"><g clip-path="url(#SvgjsClipPath1203)"><rect width="1000" height="1000" fill="#ffffff"></rect><g transform="matrix(14.035087719298245,0,0,14.035087719298245,100,170.17543859649123)"><svg xmlns="http://www.w3.org/2000/svg" version="1.1" xmlns:xlink="http://www.w3.org/1999/xlink" xmlns:svgjs="http://svgjs.dev/svgjs" width="57" height="47"><svg width="57" height="47" viewBox="0 0 57 47" fill="none" xmlns="http://www.w3.org/2000/svg">
<path d="M37.1987 29.0169C37.0251 28.6614 36.8516 28.3059 36.7359 27.9504C36.3888 26.8247 36.331 25.6398 36.5624 24.5141C36.8516 23.3884 37.43 22.3219 38.2977 21.4925L55.9982 5.31786V2L36.7359 19.7743C35.8682 20.5445 35.2319 21.4925 34.7692 22.4404C34.075 23.9216 33.8437 25.5805 34.075 27.1802C34.3064 28.7799 35.0006 30.3796 36.0996 31.683L36.9094 32.5718L55.9982 14.9752V11.7166L37.1987 29.0169Z" fill="#F37022"></path>
<path d="M44.084 32.5718H47.6703L56 24.9289V21.611L44.084 32.5718Z" fill="#F37022"></path>
<path d="M37.1987 29.0169C37.0251 28.6614 36.8516 28.3059 36.7359 27.9504C36.3888 26.8247 36.331 25.6398 36.5624 24.5141C36.8516 23.3884 37.43 22.3219 38.2977 21.4925L55.9982 5.31786V2L36.7359 19.7743C35.8682 20.5445 35.2319 21.4925 34.7692 22.4404C34.075 23.9216 33.8437 25.5805 34.075 27.1802C34.3064 28.7799 35.0006 30.3796 36.0996 31.683L36.9094 32.5718L55.9982 14.9752V11.7166L37.1987 29.0169Z" stroke="#F47123"></path>
<path d="M44.084 32.5718H47.6703L56 24.9289V21.611L44.084 32.5718Z" stroke="#F47123"></path>
<path fill-rule="evenodd" clip-rule="evenodd" d="M29.4568 13.811C29.4888 13.8058 29.5212 13.8032 29.5537 13.8032H37.5487V15.0261H30.9875C30.066 15.0261 29.1415 15.0836 28.2485 15.3113C26.9138 15.6517 25.5643 16.1634 24.2457 16.7804L27.4596 17.6833L27.4839 17.6923C28.7703 18.1742 31.3073 19.9755 31.3073 23.3986C31.3073 24.4111 31.2674 25.1196 31.1808 25.6884C30.8402 27.9257 29.6413 29.512 27.8347 30.755C27.4601 31.0128 26.9661 31.2472 26.4698 31.4176C25.9772 31.5868 25.4311 31.7106 24.9523 31.7106H7.19385C6.70487 32.493 6.33909 33.2191 6.15494 33.8399C5.2508 36.2404 5.2508 38.1882 5.2508 38.1882C5.2508 38.1882 8.51591 38.1882 9.84661 38.1882H55.8232V39.4111H9.84661C8.54068 39.4111 4.02792 39.4111 4.02792 39.4111C4.02792 39.4111 4.02792 35.629 4.98256 33.4921C6.03973 31.1257 6.98632 29.699 8.58296 27.7874C10.1992 25.8523 11.9855 24.039 13.1426 22.9552C14.5048 21.6437 16.9349 19.6298 19.8346 17.8111C22.7299 15.9953 26.1421 14.3431 29.4568 13.811ZM8.02189 30.4877H24.9523C25.2457 30.4877 25.6495 30.4064 26.0727 30.2611C26.4922 30.117 26.8801 29.9275 27.1416 29.7476C28.7304 28.6544 29.6921 27.3415 29.9719 25.5043C30.0449 25.0248 30.0844 24.3869 30.0844 23.3986C30.0844 20.6821 28.0835 19.2334 27.0778 18.8462L22.6277 17.5961C21.8941 17.9917 21.1769 18.4128 20.4844 18.8471C17.6566 20.6206 15.2911 22.5836 13.9878 23.839L13.9816 23.845C12.8543 24.9005 11.1018 26.6792 9.52152 28.5713C8.98469 29.2141 8.4763 29.86 8.02189 30.4877Z" fill="#4A4A4A"></path>
<path d="M28.5019 44.6049C29.9279 43.7363 30.8964 42.0398 30.8965 40.0891H29.6737C29.6734 42.3866 28.0454 43.9993 26.3279 43.9993C24.6105 43.9993 22.9825 42.3866 22.9822 40.0891H21.7594C21.7595 42.0398 22.7279 43.7363 24.154 44.6049H19.1638C20.5898 43.7363 21.5583 42.0398 21.5584 40.0891H20.3356C20.3353 42.3866 18.7073 43.9993 16.9898 43.9993C15.2724 43.9993 13.6444 42.3866 13.6441 40.0891H12.4212C12.4214 42.0398 13.3898 43.7363 14.8159 44.6049H1V45.8277H55.5831C55.6624 45.8317 55.7423 45.8337 55.8227 45.8337L55.8231 44.6049H55.6206C53.5871 44.4853 51.8658 42.5734 51.8655 40.0891H50.6427C50.6428 41.8934 51.4046 43.5413 52.6173 44.6049H28.5019Z" fill="#4A4A4A"></path>
<path fill-rule="evenodd" clip-rule="evenodd" d="M29.4568 13.811C29.4888 13.8058 29.5212 13.8032 29.5537 13.8032H37.5487V15.0261H30.9875C30.066 15.0261 29.1415 15.0836 28.2485 15.3113C26.9138 15.6517 25.5643 16.1634 24.2457 16.7804L27.4596 17.6833L27.4839 17.6923C28.7703 18.1742 31.3073 19.9755 31.3073 23.3986C31.3073 24.4111 31.2674 25.1196 31.1808 25.6884C30.8402 27.9257 29.6413 29.512 27.8347 30.755C27.4601 31.0128 26.9661 31.2472 26.4698 31.4176C25.9772 31.5868 25.4311 31.7106 24.9523 31.7106H7.19385C6.70487 32.493 6.33909 33.2191 6.15494 33.8399C5.2508 36.2404 5.2508 38.1882 5.2508 38.1882C5.2508 38.1882 8.51591 38.1882 9.84661 38.1882H55.8232V39.4111H9.84661C8.54068 39.4111 4.02792 39.4111 4.02792 39.4111C4.02792 39.4111 4.02792 35.629 4.98256 33.4921C6.03973 31.1257 6.98632 29.699 8.58296 27.7874C10.1992 25.8523 11.9855 24.039 13.1426 22.9552C14.5048 21.6437 16.9349 19.6298 19.8346 17.8111C22.7299 15.9953 26.1421 14.3431 29.4568 13.811ZM8.02189 30.4877H24.9523C25.2457 30.4877 25.6495 30.4064 26.0727 30.2611C26.4922 30.117 26.8801 29.9275 27.1416 29.7476C28.7304 28.6544 29.6921 27.3415 29.9719 25.5043C30.0449 25.0248 30.0844 24.3869 30.0844 23.3986C30.0844 20.6821 28.0835 19.2334 27.0778 18.8462L22.6277 17.5961C21.8941 17.9917 21.1769 18.4128 20.4844 18.8471C17.6566 20.6206 15.2911 22.5836 13.9878 23.839L13.9816 23.845C12.8543 24.9005 11.1018 26.6792 9.52152 28.5713C8.98469 29.2141 8.4763 29.86 8.02189 30.4877Z" stroke="#4A4A4A" stroke-width="2" stroke-linecap="round"></path>
<path d="M28.5019 44.6049C29.9279 43.7363 30.8964 42.0398 30.8965 40.0891H29.6737C29.6734 42.3866 28.0454 43.9993 26.3279 43.9993C24.6105 43.9993 22.9825 42.3866 22.9822 40.0891H21.7594C21.7595 42.0398 22.7279 43.7363 24.154 44.6049H19.1638C20.5898 43.7363 21.5583 42.0398 21.5584 40.0891H20.3356C20.3353 42.3866 18.7073 43.9993 16.9898 43.9993C15.2724 43.9993 13.6444 42.3866 13.6441 40.0891H12.4212C12.4214 42.0398 13.3898 43.7363 14.8159 44.6049H1V45.8277H55.5831C55.6624 45.8317 55.7423 45.8337 55.8227 45.8337L55.8231 44.6049H55.6206C53.5871 44.4853 51.8658 42.5734 51.8655 40.0891H50.6427C50.6428 41.8934 51.4046 43.5413 52.6173 44.6049H28.5019Z" stroke="#4A4A4A" stroke-width="2" stroke-linecap="round"></path>
</svg></svg></g></g><defs><clipPath id="SvgjsClipPath1203"><rect width="1000" height="1000" x="0" y="0" rx="200" ry="200"></rect></clipPath></defs></svg>