<svg width="350" height="338" viewBox="0 0 399 338" fill="none" xmlns="http://www.w3.org/2000/svg">
<g clip-path="url(#clip0_205_3)">
<path d="M244.226 54.4351C242.698 54.8584 241.213 55.426 239.79 56.1305C239.346 56.3122 238.952 56.5984 238.64 56.9652C238.329 57.332 238.109 57.7687 238 58.2384C237.867 59.1025 238.256 60.0065 239.154 60.9238C239.905 61.6413 240.723 62.2829 241.598 62.8394C242.267 63.294 242.95 63.7275 243.634 64.1603C244.612 64.7802 245.624 65.4184 246.56 66.1129C259.246 75.5 270.806 83.8463 283.645 90.852C283.58 91.3286 283.513 91.8037 283.445 92.2767C283.254 93.614 283.057 94.9958 282.953 96.367C282.795 98.4373 282.631 100.509 282.463 102.581C281.936 109.152 281.391 115.946 281.11 122.647C281.008 125.063 281.739 126.851 283.166 127.681C284.667 128.551 286.702 128.262 288.896 126.862C289.687 126.357 290.503 125.784 291.388 125.11C295.27 122.151 299.148 119.186 303.062 116.192L306.61 113.479C306.634 113.5 306.657 113.52 306.678 113.542L309.554 116.435C312.828 119.728 316.213 123.131 319.512 126.51C320.452 127.47 321.399 128.426 322.351 129.377C325.253 132.292 328.256 135.306 330.917 138.495C332.328 140.182 333.758 141.033 335.543 141.167C336.314 141.213 337.087 141.157 337.844 140.998C340.502 140.48 342.303 139.003 343.683 136.217C348.882 125.719 354.197 115.058 359.336 104.749C363.556 96.2807 367.773 87.8114 371.986 79.3406C381.06 61.1582 389.112 42.478 396.104 23.3883C396.943 21.1762 397.588 18.8941 398.03 16.5686C398.161 16.0319 398.169 15.4727 398.056 14.9324C397.942 14.3921 397.709 13.8845 397.375 13.4471C396.965 13.0142 396.463 12.6792 395.907 12.4668C395.351 12.2545 394.755 12.1703 394.162 12.2202C393.38 12.2557 392.602 12.3722 391.843 12.568L391.741 12.5911C390.04 12.9659 388.335 13.326 386.631 13.6869C382.671 14.5245 378.576 15.3906 374.588 16.429C345.783 23.935 316.516 32.2635 287.599 41.1831C279.259 43.7544 270.769 46.342 262.559 48.8428C256.445 50.7017 250.334 52.5657 244.226 54.4351ZM295.469 88.0695C297.113 86.8848 298.67 85.7654 300.261 84.7229C306.499 80.6307 312.742 76.546 318.989 72.4702C331.265 64.4494 343.961 56.1555 356.387 47.9062C360.187 45.386 363.83 42.5057 367.353 39.726C368.562 38.773 369.771 37.8153 370.988 36.8726C371.959 36.1208 373.583 34.8629 372.941 32.1194C372.92 32.0298 372.88 31.9455 372.826 31.8719C372.771 31.7983 372.702 31.7371 372.622 31.6918C372.543 31.6469 372.455 31.6187 372.363 31.6092C372.273 31.5997 372.181 31.609 372.094 31.6364C371.731 31.7534 371.381 31.8545 371.044 31.9492C370.344 32.1331 369.657 32.3674 368.99 32.6506C346.305 42.9315 326.178 57.134 306.713 70.8699C302.311 73.9758 298.14 77.2071 293.727 80.6247C291.854 82.0765 289.962 83.5336 288.051 84.9964L248.834 59.6309C249.081 59.5023 249.338 59.3945 249.602 59.3088C256.365 57.3086 263.126 55.2991 269.885 53.2802C286.435 48.3496 303.55 43.2506 320.436 38.4456C335.475 34.1663 350.842 30.0804 365.703 26.1289C370.644 24.8154 375.585 23.4985 380.525 22.1783C382.439 21.6656 384.36 21.2961 386.394 20.9058C386.933 20.8027 387.474 20.6979 388.018 20.5912C378.074 45.596 365.955 69.9446 354.229 93.5048C348.066 105.884 341.7 118.677 335.683 131.487C322.845 119.383 310.464 106.676 298.488 94.3825C296.87 92.7205 295.249 91.0576 293.625 89.3938C294.253 88.9419 294.866 88.5012 295.467 88.0694L295.469 88.0695ZM301.602 108.171L289.126 117.296L289.828 95.453L301.602 108.171Z" fill="#7F9DFF"/>
</g>
<path d="M272.5 126.5C263.262 141.087 231.028 175.021 216.014 184.655C201.276 194.112 187.105 203.902 171.605 212.086C160.719 217.835 151.565 221.534 139.595 223.877C123.885 226.953 108.018 229.638 91.9451 229.064C83.1963 228.065 64.708 225.111 60.7456 221.284C51.0599 214.284 47.2 200.139 50.0487 188.626C51.608 182.324 56.837 174.728 64 173.431M4 362.307C4.93823 365.122 77 314.714 80.1136 311.925C87.5 305.307 95.4816 297.974 101.67 290.733C110.648 280.228 119.787 269.453 127.075 257.71C133.136 247.946 139.238 238.301 144.701 228.172C149.646 219.001 150.492 211.517 149.684 201.025C148.562 186.432 146.826 171.862 137.5 160.307C134.06 156.045 127.48 150.104 122.091 148.307C115.614 146.148 102.421 147.591 99.4816 154.466C95.5739 163.607 97.0494 173.405 100.292 182.67L85.5 176.307C77.9843 172.553 68.3685 172.826 64.5 173.431" stroke="#7F9DFF" stroke-width="7" stroke-linecap="round" stroke-linejoin="round" stroke-dasharray="20 20"/>
<defs>
<clipPath id="clip0_205_3">
<rect width="157" height="134" fill="white" transform="translate(242.322 0.308594) rotate(4.28563)"/>
</clipPath>
</defs>
</svg>
