<svg width="60" height="60" viewBox="0 0 60 60" fill="none" xmlns="http://www.w3.org/2000/svg">
<rect x="0.5" y="0.5" width="59" height="59" rx="5.5" stroke="#1C1C1C"/>
<g clip-path="url(#clip0_222_90)">
<path d="M45.6639 24.17C45.1477 24.5022 44.7435 24.7937 44.3148 25.0327C42.8007 25.8704 41.5304 27.1488 40.6455 28.7254C39.9834 29.8689 39.694 31.2211 39.8238 32.5649C40.0037 34.6998 41.0322 36.1499 42.8825 36.9032C43.8191 37.2845 44.7744 37.6194 45.6914 38.0488C46.8916 38.6108 47.192 39.3636 46.6696 40.6439C46.2511 41.6901 45.7498 42.695 45.1716 43.6469C44.4869 44.754 43.7555 45.8552 42.8975 46.8017C40.7108 49.2135 38.1791 49.4183 35.6076 47.497C35.0444 47.0762 34.5146 46.6005 33.9838 46.1311C33.3596 45.5797 32.687 45.4231 31.9446 45.7935C31.3249 46.1028 30.708 46.4203 30.1015 46.7589C29.2103 47.2568 28.3407 47.8041 27.4397 48.2807C26.1099 48.9838 24.7165 49.0109 23.2969 48.6465C20.4517 47.9163 18.2598 46.1416 16.5638 43.615C15.0098 41.3334 13.9179 38.7199 13.36 35.9466C12.5408 31.81 13.1954 27.9455 15.3875 24.4453C17.2066 21.5412 19.7969 19.9583 23.0213 19.97C25.1068 19.9776 27.2027 20.3099 29.2729 20.647C30.9837 20.9255 32.6282 20.8992 34.2609 20.2574C35.1183 19.9203 35.9795 19.5822 36.8594 19.3287C38.4137 18.8694 40.064 18.9831 41.5525 19.652C43.0408 20.3209 44.2832 21.5072 45.0852 23.0254C45.2459 23.3224 45.3912 23.6289 45.6639 24.17ZM44.227 40.1174C43.2262 39.7106 42.3487 39.4274 41.5294 39.0081C38.6814 37.5492 37.1748 34.4642 37.6336 31.0764C38.0519 27.9863 39.8082 25.9259 42.1212 24.3142C42.4609 24.0775 42.822 23.8772 43.2454 23.6152C41.694 21.7784 39.8939 20.9934 37.6912 21.5713C36.941 21.7836 36.2068 22.0584 35.4953 22.3934C33.2296 23.4109 30.9426 23.5687 28.5299 23.0116C26.7452 22.6113 24.9303 22.3912 23.1083 22.3541C20.4378 22.2857 18.3922 23.6614 16.9501 26.0894C15.8231 27.9735 15.2227 30.1723 15.2215 32.4196C15.1925 36.8008 16.7432 40.5194 19.4073 43.7219C20.3032 44.7985 21.4262 45.5646 22.6723 46.1138C24.2849 46.8245 25.8569 46.8829 27.3952 45.8764C27.9807 45.4934 28.5759 45.1252 29.1831 44.7848C29.824 44.4088 30.483 44.0706 31.1573 43.7715C32.639 43.1502 34.0145 43.3747 35.2606 44.4835C35.8143 44.9997 36.3985 45.476 37.0092 45.9095C38.4877 46.9058 39.7479 46.8045 40.9911 45.4959C42.4176 43.9809 43.522 42.1452 44.227 40.1174Z" fill="#010101"/>
<path d="M36.857 13.2479C36.8168 15.5002 35.9219 17.2583 34.1561 18.4259C33.3444 18.9624 32.4541 19.368 31.5774 19.7772C30.8371 20.1226 30.0565 20.0872 29.3043 19.797C28.5555 19.5082 28.3789 19.0798 28.5359 18.1876C28.9746 15.6921 30.3086 13.8683 32.2415 12.5665C33.0831 12.0002 34.0702 11.6946 34.9579 11.1999C35.9339 10.6561 36.7619 11.3376 36.8538 12.5058C36.8733 12.7518 36.857 13.0005 36.857 13.2479ZM30.0364 17.7559C33.1828 17.3142 34.9856 15.5325 34.8377 13.0811C32.6651 13.9085 31.0308 15.2962 30.0364 17.7559Z" fill="#010101"/>
</g>
<defs>
<clipPath id="clip0_222_90">
<rect width="34" height="38" fill="white" transform="translate(13 11)"/>
</clipPath>
</defs>
</svg>
