<svg width="30" height="20" viewBox="0 0 50 40" fill="none" xmlns="http://www.w3.org/2000/svg">
<path d="M27.4516 19.8703C33.4791 19.8003 39.5065 19.7442 45.5339 19.6495C46.7353 19.6303 47.9384 19.495 49.1349 19.3263C49.3328 19.2954 49.5197 19.1795 49.671 18.9938C49.8223 18.8081 49.931 18.5612 49.983 18.2854C50.0812 17.8439 49.7396 17.2175 49.3316 17.1254C48.9359 17.0362 48.5422 16.8977 48.1446 16.8633C45.6049 16.6425 43.0655 16.33 40.5234 16.2641C35.3008 16.1294 30.0766 16.0953 24.8528 16.0868C19.8969 16.0786 14.9407 16.1672 9.98466 16.184C9.18889 16.1868 8.39266 16.043 7.59821 15.9411C7.5455 15.9224 7.4969 15.8851 7.45687 15.8324C7.41685 15.7798 7.38669 15.7136 7.36915 15.6399C7.35486 15.4639 7.39115 15.1668 7.47271 15.1037C8.99566 13.9159 10.4999 12.6663 12.066 11.6063C15.7092 9.14019 19.1268 6.11617 22.542 3.08206C23.1033 2.58342 23.6915 2.0769 23.9179 1.0875C23.959 0.907405 24.0232 0.598951 23.9709 0.53871C23.7835 0.288096 23.5558 0.107878 23.3081 0.0141779C23.0443 -0.0304635 22.7771 0.0307988 22.5361 0.191127C21.6827 0.745909 20.8355 1.32467 20.0052 1.94664C14.0699 6.39184 8.1467 10.8635 2.2083 15.2968C-0.0317313 16.9684 -1.09614 18.5895 1.59278 22.2648C2.36744 23.3242 3.15113 24.3821 3.99351 25.3241C7.90026 29.6977 11.8213 34.0444 15.7566 38.3645C16.2977 38.9217 16.8683 39.4173 17.4632 39.8469C17.8512 40.1491 18.2396 39.9696 18.5746 39.6075C18.9432 39.2085 19.1721 38.0488 19.045 37.5388C18.7625 36.4066 18.1998 35.5758 17.5955 34.8236C15.2686 31.9276 12.9292 29.0525 10.5775 26.1981C9.04931 24.3329 7.50501 22.495 5.97919 20.626C5.90379 20.5336 5.90006 20.2475 5.93062 20.0753C5.95067 20.0008 5.98303 19.9344 6.02492 19.8817C6.0668 19.8291 6.11697 19.7919 6.17111 19.7732C6.96842 19.6981 7.76748 19.6026 8.56567 19.6085C14.8612 19.6563 21.1567 19.7158 27.4523 19.787L27.4516 19.8703Z" fill="black"/>
</svg>
