<svg width="43" height="25" viewBox="0 0 42 35" fill="none" xmlns="http://www.w3.org/2000/svg">
<path d="M17.5 26.8333L15.1667 18.6666" stroke="currentColor" stroke-linecap="round"/>
<path d="M12.8333 1.16675L8.16667 8.16675M29.1667 1.16675L33.8333 8.16675" stroke="currentColor" stroke-linecap="round"/>
<path d="M24.5 26.8333L26.8333 18.6666" stroke="currentColor" stroke-linecap="round"/>
<path d="M3.5 12.8333V12.8333C4.19241 12.8333 4.53862 12.8333 4.83376 12.9269C5.30795 13.0773 5.70906 13.3991 5.95877 13.8293C6.1142 14.0971 6.1893 14.4351 6.3395 15.111L9.80394 30.701C10.1376 32.2026 10.3045 32.9534 10.8529 33.3933C11.4013 33.8333 12.1704 33.8333 13.7087 33.8333H28.2913C29.8296 33.8333 30.5987 33.8333 31.1471 33.3933C31.6955 32.9534 31.8624 32.2026 32.1961 30.701L35.6605 15.111C35.8107 14.4351 35.8858 14.0971 36.0412 13.8293C36.2909 13.3991 36.692 13.0773 37.1662 12.9269C37.4614 12.8333 37.8076 12.8333 38.5 12.8333V12.8333" stroke="currentColor" stroke-linecap="round"/>
<path d="M38.5 12.8334H3.50001C3.19039 12.8334 3.03558 12.8334 2.90562 12.8163C2.00815 12.6982 1.30194 11.9919 1.18378 11.0945C1.16667 10.9645 1.16667 10.8097 1.16667 10.5001C1.16667 10.1905 1.16667 10.0357 1.18378 9.9057C1.30194 9.00823 2.00815 8.30201 2.90562 8.18386C3.03558 8.16675 3.19039 8.16675 3.50001 8.16675H38.5C38.8096 8.16675 38.9644 8.16675 39.0944 8.18386C39.9919 8.30201 40.6981 9.00823 40.8162 9.9057C40.8333 10.0357 40.8333 10.1905 40.8333 10.5001C40.8333 10.8097 40.8333 10.9645 40.8162 11.0945C40.6981 11.9919 39.9919 12.6982 39.0944 12.8163C38.9644 12.8334 38.8096 12.8334 38.5 12.8334Z" stroke="currentColor" stroke-linecap="round"/>
</svg>
