<svg width="197" height="221" viewBox="0 0 197 221" fill="none" xmlns="http://www.w3.org/2000/svg">
<path d="M154.059 102.064C153.87 100.926 151.533 99.9857 150.324 99.6481C149.275 99.4631 148.197 99.5227 147.175 99.8223C146.937 99.8713 146.699 99.9203 146.467 99.9629C112.678 106.088 79.7157 112.353 47.9067 121.627C47.2689 121.813 46.6233 121.962 45.7276 122.171C45.2626 122.279 44.7334 122.401 44.1069 122.551C43.1969 118.386 41.2321 108.661 39.6473 100.824C38.8147 96.7092 38.0889 93.1186 37.6783 91.1385C37.4676 90.0146 37.317 88.8801 37.2273 87.7401C37.1545 86.988 37.0792 86.209 36.9688 85.4482C36.7675 84.0533 36.3893 81.4596 33.6091 81.6827C31.2501 81.877 30.9332 83.9056 30.9112 85.6547C30.9098 85.8571 30.9053 86.0608 30.9 86.2642C30.8606 87.0266 30.8851 87.7909 30.9733 88.5492C31.9255 95.039 35.1622 115.141 36.5042 121.317C37.5842 126.281 38.7416 128.683 40.6359 129.872C40.6887 129.903 40.7422 129.934 40.795 129.964C43.0065 131.241 46.2517 130.833 50.7418 129.76C74.379 124.107 95.6405 119.151 115.74 114.613C122.154 113.164 128.724 111.894 135.078 110.665C139.004 109.906 143.063 109.121 147.046 108.301C148.984 107.903 150.832 107.457 152.134 106.399C153.234 105.504 154.292 103.459 154.059 102.064Z" fill="#31C5B7"/>
<path d="M81.3575 200.959L75.2401 197.427C73.9802 196.232 72.6362 195.129 71.2184 194.127C58.162 186.154 45.1274 178.14 31.9533 170.365C22.0317 164.51 12.0984 158.629 1.84636 153.393C-17.2334 143.652 -19.7829 122.579 -11.027 110.506C-8.55872 107.103 -6.75828 103.212 -4.69346 99.5203C7.7724 77.2351 20.1718 54.9131 32.7268 32.6777C35.4966 27.7725 38.3615 22.8017 41.949 18.5004C50.4342 8.32803 65.264 6.18701 78.0482 13.1035C98.2314 24.0192 118.277 35.1893 138.423 46.1723C147.099 50.9017 155.802 55.5921 164.632 60.0209C178.68 67.0667 188.072 82.2005 180.736 99.4377C175.598 111.512 169.806 123.365 163.485 134.867C152.834 154.249 141.594 173.311 130.48 192.436C123.793 203.941 107.274 210.182 94.4523 206.079C89.997 204.655 85.717 202.682 81.3575 200.959ZM44.7019 169.066C49.5567 172.172 54.363 175.358 59.2756 178.37C70.1756 185.053 80.3116 193.022 92.5227 197.49C104.659 201.929 118.448 197.739 124.198 187.688C133.253 171.859 142.368 156.064 151.541 140.304C159.337 126.888 167.179 113.566 172.267 98.731C176.972 85.0138 172.915 74.7735 160.368 67.4259C141.485 56.3691 122.373 45.7002 103.185 35.1739C93.9158 30.0895 84.3595 25.487 74.7427 21.0831C67.6955 17.8565 60.3071 16.5232 53.1525 21.0855C47.8336 24.566 43.4426 29.2897 40.3592 34.8482C25.7835 60.1238 11.4669 85.5508 -3.30359 110.716C-11.6864 124.997 -8.48026 138.491 5.87004 146.663C18.8573 154.057 31.7638 161.588 44.7019 169.066Z" fill="#31C5B7"/>
</svg>
