<svg width="91" height="87" viewBox="0 0 91 87" fill="none" xmlns="http://www.w3.org/2000/svg">
<g clip-path="url(#clip0_157_176)">
<path d="M62.9301 23.8322C61.9573 24.2718 61.2681 24.2614 60.6237 23.734C60.0108 23.2329 59.9781 22.5592 60.1012 21.8718C60.1652 21.5096 60.3035 21.1645 60.5077 20.8583C61.6038 19.2612 62.6885 17.6526 63.87 16.1197C64.2759 15.6459 64.8093 15.2987 65.407 15.1193C65.6835 15.0352 65.9758 15.0179 66.2603 15.0684C66.5448 15.119 66.8133 15.2361 67.0441 15.4102C67.2746 15.5844 67.4607 15.8106 67.5872 16.0704C67.7137 16.3302 67.7769 16.6162 67.7717 16.9051C67.7587 17.635 67.5458 18.3472 67.1558 18.9644C66.1298 20.4109 64.966 21.7619 63.8203 23.1198C63.5541 23.3932 63.2551 23.6325 62.9301 23.8322Z" fill="#FFC73A"/>
<path d="M18.1493 45.6388C17.7633 45.5983 16.9538 45.6566 16.2564 45.4031C15.1268 44.979 14.0393 44.4503 13.008 43.824C12.4677 43.512 12.0333 43.0453 11.7609 42.484C11.3205 41.4351 12.0939 40.2061 13.3674 40.0967C14.4139 39.9821 15.4727 40.0755 16.4829 40.3716C17.4932 40.6677 18.4349 41.1607 19.254 41.8221C20.6383 42.9621 20.2081 44.8038 18.1493 45.6388Z" fill="#FFC73A"/>
<path d="M48.9881 7.427C50.4636 6.77748 51.8331 7.49874 52.044 8.78828C52.1262 9.20024 52.1046 9.62608 51.9805 10.0274C51.4265 11.4961 50.8634 12.968 50.1794 14.3786C49.8473 15.0631 49.3262 15.6927 48.4052 15.7698C47.3329 15.8595 46.548 15.2855 46.4484 14.2221C46.4057 13.9092 46.4244 13.5908 46.5026 13.2848C46.9714 11.7864 47.4209 10.2773 47.9945 8.81823C48.2303 8.21836 48.7609 7.73474 48.9881 7.427Z" fill="#FFC73A"/>
<path d="M25.0682 24.2627C25.3536 25.1541 25.2702 25.9417 24.6602 26.6476C24.0896 27.3074 23.3622 27.3389 22.6464 27.0598C21.1116 26.4995 19.7381 25.5704 18.6468 24.3543C17.8942 23.4866 17.829 22.5172 18.3616 21.7503C18.9284 20.9355 19.7994 20.6384 20.8758 21.1073C22.5186 21.8246 24.0375 22.7518 25.0682 24.2627Z" fill="#FFC73A"/>
<path d="M77.4801 27.9978C77.1437 27.2811 76.7038 26.6179 76.1738 26.0297C75.4422 25.2621 74.5676 24.9041 73.7179 25.0244C72.8579 25.1451 72.1105 25.7407 71.6121 26.6965C71.2357 27.4172 70.8897 28.1764 70.5564 28.9093C70.4185 29.2098 70.282 29.5135 70.1429 29.8112L68.2921 33.7894C66.7817 37.0356 65.2696 40.2824 63.7553 43.5298C63.6429 43.7537 63.5157 43.9699 63.3744 44.1765C63.3185 44.2626 63.2602 44.3499 63.2041 44.4432C63.1653 44.5045 63.1133 44.5562 63.0517 44.5942C62.9903 44.6326 62.9209 44.6565 62.8488 44.664C62.7762 44.672 62.7032 44.6627 62.6346 44.6375C62.5663 44.6121 62.5047 44.5711 62.4549 44.518C61.2581 43.2563 60.0791 41.9955 58.9025 40.7409C56.2886 37.9531 53.5828 35.0685 50.8682 32.3196C47.0884 28.4956 43.2382 24.8655 39.6443 21.5094C38.7409 20.7134 37.7072 20.0792 36.5881 19.6347C35.569 19.2049 34.7769 19.4825 34.0267 20.5406C33.4137 21.398 33.4339 22.415 33.4551 23.4901L33.4571 23.5898C33.4749 24.6561 33.4974 25.7226 33.5242 26.7897C33.5945 30.0295 33.67 33.384 33.6353 36.683C33.5843 41.672 33.3889 46.7447 33.1921 51.514C33.1256 53.133 32.9784 54.725 32.8232 56.4102C32.7534 57.1775 32.6812 57.9588 32.6174 58.7576C32.6125 58.8226 32.5942 58.8858 32.5637 58.9433C32.5332 59.0007 32.4912 59.0514 32.4402 59.0919C32.3892 59.1324 32.3304 59.1619 32.2675 59.1787C32.2045 59.1952 32.1389 59.1989 32.0745 59.1889L30.5183 58.9501C29.5317 58.8024 28.6338 58.6682 27.736 58.5266C26.4736 58.3298 25.2106 58.1318 23.9471 57.9329C21.4716 57.5416 18.9962 57.1561 16.5207 56.7763C15.946 56.6459 15.3461 56.6788 14.7893 56.872C14.3976 57.0567 14.0862 57.3774 13.9134 57.7745C13.3616 58.8461 13.4963 59.8173 14.328 60.7439C14.8623 61.342 15.4768 61.9025 16.0705 62.4474L16.0974 62.4693C16.5781 62.912 17.0844 63.3501 17.5716 63.776C18.4909 64.5793 19.4461 65.4099 20.3131 66.3075C20.8647 66.8741 21.4179 67.4413 21.9724 68.0092C25.5172 71.6411 29.1812 75.3974 32.3087 79.544C33.3688 80.951 34.6438 81.4077 36.2073 80.9405C36.6375 80.8129 37.0694 80.6878 37.4974 80.5645C39.2742 80.0934 41.0161 79.4994 42.7102 78.7861C46.5212 77.0779 50.3557 75.249 54.0655 73.481C55.6971 72.7023 57.3293 71.927 58.9618 71.1549C61.6433 69.8905 64.3266 68.6299 67.0115 67.3738L70.0923 65.9264C70.3419 65.8113 70.5904 65.6934 70.843 65.5773C71.1157 65.4522 71.3904 65.3229 71.6649 65.194C72.6181 64.7478 73.5668 64.2912 74.5169 63.8387C76.849 62.7258 79.2555 61.5771 81.6611 60.5186C82.7717 60.0307 83.389 59.3015 83.6085 58.2262C83.7436 57.4479 83.7583 56.6532 83.6521 55.8701L83.5209 54.7082C82.9869 49.9687 82.431 45.0666 81.3101 40.3473C81.2012 39.8883 81.0961 39.4313 80.9869 38.9724C80.1233 35.2801 79.2306 31.453 77.4801 27.9978ZM78.1582 56.0651C78.1636 56.1536 78.1438 56.2415 78.1014 56.3192C78.0589 56.3969 77.9952 56.461 77.9181 56.5041C77.5866 56.6925 77.246 56.8915 76.9023 57.0919C76.1174 57.5523 75.3016 58.0295 74.448 58.4436C73.048 59.122 71.6176 59.7929 70.2331 60.4359C68.3907 61.3005 66.4831 62.19 64.6353 63.1139C62.4834 64.1936 60.3185 65.3477 58.2267 66.4633C57.0243 67.1045 55.8216 67.7458 54.614 68.3751C52.8513 69.2967 51.3784 70.0616 49.8171 70.7962C45.972 72.609 42.0528 74.4256 38.2634 76.1838L36.386 77.0549L36.3423 77.0738C36.1643 77.1465 35.9798 77.2019 35.7914 77.2399C35.7283 77.2535 35.6655 77.267 35.608 77.2859C35.5208 77.3102 35.4285 77.309 35.3419 77.2824C35.2553 77.2556 35.1782 77.2049 35.1196 77.1358L22.9934 62.9369C22.9301 62.8641 22.8906 62.7733 22.8806 62.6772C22.8704 62.5811 22.8902 62.4844 22.937 62.3998C22.9838 62.3153 23.0554 62.2471 23.1422 62.2048C23.229 62.1622 23.3267 62.1474 23.4221 62.1623L24.2489 62.2831C24.7963 62.3627 25.2989 62.4342 25.7982 62.5142C26.5078 62.627 27.2168 62.7378 27.9248 62.8463C29.6824 63.1215 31.5008 63.4016 33.2818 63.7387C34.4214 63.9545 35.2919 63.8497 35.8639 63.4298C36.4235 63.0201 36.7586 62.2921 36.885 61.2083L37.0012 60.2387C37.2209 58.4087 37.4471 56.5138 37.5138 54.6569C37.7261 48.4928 37.8995 42.2218 38.0657 36.1568C38.1311 33.7637 38.1984 31.3697 38.2678 28.9748C38.2726 28.7717 38.2828 28.5723 38.2997 28.2933L38.3282 27.7473C38.3314 27.6563 38.3617 27.5683 38.4148 27.4945C38.4682 27.4205 38.5419 27.3641 38.6272 27.3321C38.7113 27.2981 38.8035 27.289 38.8926 27.306C38.9817 27.3229 39.064 27.3652 39.1296 27.4278C39.8208 28.0856 40.5034 28.716 41.1738 29.3346C42.6308 30.6803 44.0065 31.9497 45.3075 33.3244C48.2873 36.4784 51.2707 39.7206 54.1608 42.8577C55.8163 44.6541 57.4752 46.4501 59.1371 48.2454C59.9729 49.1659 60.8605 50.0378 61.7959 50.8566C62.1195 51.1631 62.5105 51.3891 62.9378 51.5163C63.3647 51.6437 63.8157 51.6685 64.2544 51.5892C65.1007 51.4053 65.8071 50.7792 66.2486 49.8273C66.9199 48.3803 67.5817 46.9267 68.2445 45.4763C68.8255 44.2023 69.4072 42.9304 69.99 41.6604C70.7352 40.0507 71.4854 38.4416 72.2408 36.8335L73.2507 34.6784C73.288 34.599 73.3461 34.5313 73.4193 34.4828C73.4923 34.4341 73.5776 34.4066 73.6651 34.4029L74.0178 34.3912C74.1257 34.3874 74.232 34.4201 74.3186 34.4848C74.4055 34.5493 74.4675 34.6414 74.4949 34.7458C76.0645 40.8134 77.7289 48.0925 78.1582 56.0651Z" fill="#FFC73A"/>
</g>
<defs>
<clipPath id="clip0_157_176">
<rect width="71.6292" height="63.3289" fill="white" transform="translate(0 28.4583) rotate(-23.4095)"/>
</clipPath>
</defs>
</svg>
