<svg width="248" height="261" viewBox="0 0 248 261" fill="none" xmlns="http://www.w3.org/2000/svg">
<path d="M130 -19.8604C140.681 -0.817515 145.955 20.7089 152.371 41.4261" stroke="#43C5E6" stroke-width="7" stroke-linecap="round"/>
<path d="M75.5311 70.5355C55.3425 62.2206 33.3382 59.5724 12 55.6925" stroke="#43C5E6" stroke-width="7" stroke-linecap="round"/>
<g clip-path="url(#clip0_204_2)">
<path d="M100.31 79.6793C100.613 81.1442 100.926 82.6574 101.155 84.1393C104.564 106.268 109.491 128.713 114.256 150.419C115.845 157.655 117.488 165.138 119.05 172.497C119.549 174.851 120.383 176.328 121.679 177.15C121.796 177.224 121.917 177.292 122.04 177.355C123.263 177.979 124.839 178.077 126.951 177.665C130.645 176.88 134.209 175.799 137.605 174.433C164.555 164.069 190.771 153.896 212.861 145.31C215.322 144.354 217.781 143.319 220.161 142.32C222.328 141.409 224.569 140.468 226.799 139.589C229.358 138.581 230.37 136.788 229.805 134.26C229.472 132.794 229.059 131.332 228.565 129.882C227.444 126.547 226.314 123.214 225.175 119.882C224.024 116.501 222.877 113.119 221.736 109.737C221.268 108.345 220.821 106.923 220.387 105.548C219.874 103.918 219.343 102.232 218.773 100.577C216.993 95.411 215.467 91.1611 213.974 87.2012C213.57 86.2211 212.879 85.3226 211.982 84.61C210.869 83.766 209.667 83.03 208.402 82.4172C203.678 79.9833 198.943 77.5715 194.977 75.5498L191.475 73.7626L191.448 73.7492L180.961 68.905C171.449 64.5116 162.464 60.3625 153.592 56.2325C151.513 55.2651 149.132 54.395 147.188 56.3369C147.021 56.4424 146.829 56.516 146.622 56.5537C146.536 56.5759 146.45 56.599 146.37 56.6233C144.976 57.0378 143.585 57.4548 142.194 57.8743C138.747 58.9105 135.182 59.9818 131.651 60.984C122.13 63.7067 112.893 66.981 103.991 70.7886C102.619 71.4342 101.382 72.2613 100.314 73.2469C100.012 73.529 99.7843 73.8713 99.645 74.254C99.5057 74.6367 99.4573 75.052 99.503 75.476C99.7314 76.882 100.025 78.3044 100.31 79.6793ZM213.004 135.576C212.966 135.593 212.928 135.61 212.891 135.627C212.194 135.937 211.592 136.207 210.958 136.438C208.403 137.372 205.843 138.294 203.276 139.207C198.32 140.98 193.196 142.814 188.225 144.738C176.55 149.259 164.722 153.925 153.284 158.437C148.51 160.32 143.736 162.201 138.96 164.08C138.763 164.159 138.568 164.235 138.373 164.308C139.231 163.566 140.116 162.809 141 162.079C145.417 158.435 149.834 154.791 154.25 151.147C164.295 142.861 174.334 134.568 184.366 126.269C185.25 125.499 186.071 124.674 186.827 123.798C187.142 123.45 187.468 123.092 187.815 122.722L213.004 135.576ZM179.03 118.224L130.799 159.072C132.111 152.198 133.211 145.218 134.274 138.447C136.278 125.702 138.35 112.529 141.889 99.8652L179.03 118.224ZM184.528 78.3771C188.382 80.1952 192.205 82.1553 195.914 84.0547C199.632 85.9601 203.477 87.9298 207.346 89.755L217.742 129.051L189.319 115.153L188.962 114.979L184.528 78.3771ZM146.09 93.7469C155.66 87.6102 165.927 83.5225 177.323 79.2764L178.569 109.567L146.09 93.7469ZM132.398 95.267C129.194 108.742 127.172 122.676 125.216 136.154C124.649 140.07 124.064 144.093 123.454 148.086C119.849 134.448 117.22 120.606 114.672 107.192C113.223 99.561 111.726 91.6797 110.064 83.9096C114.104 85.5051 127.416 92.2506 132.399 95.2666L132.398 95.267ZM166.134 69.4935C167.87 70.3613 169.605 71.2298 171.34 72.099C171.504 72.1799 171.656 72.2677 171.854 72.3841C160.828 76.6435 148.36 81.8624 137.911 89.7471L110.148 75.5793C110.435 75.4287 110.737 75.2993 111.052 75.1926C121.062 72.012 129.486 69.344 138.063 66.6599C140.265 65.9688 142.524 65.2927 144.706 64.6369C146.749 64.0243 148.789 63.4051 150.825 62.7789C151.174 62.6346 151.57 62.5763 151.978 62.6091C152.387 62.642 152.795 62.765 153.167 62.9671C157.478 65.1675 161.879 67.3654 166.134 69.4931L166.134 69.4935Z" fill="#43C5E6"/>
</g>
<path d="M69.1948 133.586C47.5263 130.904 25.6048 134.168 4 136.067" stroke="#43C5E6" stroke-width="7" stroke-linecap="round"/>
<path d="M97.7089 185.054C79.8336 197.592 65.7566 214.71 51 230.604" stroke="#43C5E6" stroke-width="7" stroke-linecap="round"/>
<path d="M163.113 192C169.301 212.939 169.665 235.099 171.323 256.723" stroke="#43C5E6" stroke-width="7" stroke-linecap="round"/>
<path d="M223 163.296C241.802 174.395 257.176 190.359 273.132 205.048" stroke="#43C5E6" stroke-width="7" stroke-linecap="round"/>
<path d="M288.466 45.0504C267.382 50.722 248.301 61.9966 229 71.8883" stroke="#43C5E6" stroke-width="7" stroke-linecap="round"/>
<defs>
<clipPath id="clip0_204_2">
<rect width="145.201" height="124.344" fill="white" transform="translate(118.519 36.0001) rotate(27.0353)"/>
</clipPath>
</defs>
</svg>
