<svg width="25" height="25" viewBox="0 0 25 25" fill="none" xmlns="http://www.w3.org/2000/svg">
<g clip-path="url(#clip0_161_146)">
<path d="M17.6891 1.32214C12.5498 -1.41884 5.86068 0.27864 2.77773 5.10701C2.693 5.23962 2.60612 5.37095 2.51909 5.50214C2.35455 5.75062 2.18434 6.0076 2.03194 6.27151C0.381513 9.13021 -0.212754 11.8904 0.21528 14.7086C0.922811 19.3678 3.41131 22.5726 7.61152 24.2338C8.81439 24.6955 10.0885 24.9242 11.3708 24.9087C12.4942 24.8943 13.6139 24.7715 14.7153 24.5417C14.8475 24.5139 14.9754 24.4679 15.0957 24.405C15.5184 24.1912 15.743 23.8078 15.6815 23.4043C15.6208 23.0053 15.2787 22.7139 14.8097 22.6623C14.6761 22.6525 14.5419 22.6598 14.4101 22.684C14.2689 22.7047 14.1281 22.729 13.9875 22.7533C13.8633 22.7751 13.7391 22.7968 13.6144 22.8153C11.7302 23.1005 10.1085 23.0237 8.65693 22.5804C5.81278 21.7115 2.36837 18.8827 2.02161 13.7695C1.7873 10.316 3.00416 7.21889 5.63847 4.56444C7.95709 2.22813 10.9434 1.42313 14.515 2.17313C16.7311 2.63835 18.6858 3.84908 20.491 5.87484C21.8335 7.38158 22.5568 8.72678 22.8361 10.2366C23.1899 12.1497 22.9483 13.7761 22.0974 15.2092C21.329 16.5027 20.2744 17.159 18.9624 17.159H18.9285C17.7384 17.1489 17.036 16.5657 16.781 15.3764C16.6997 15.0017 16.6484 14.6207 16.6277 14.2373C16.5587 12.8629 16.498 11.4235 16.4422 9.83682C16.4293 9.46823 16.3468 9.01929 15.8206 8.81842C15.6879 8.75577 15.5681 8.66722 15.4675 8.55757C15.0374 8.13463 14.4955 7.8479 13.8108 7.68095C11.8386 7.20051 9.97295 7.58314 8.10695 8.85303C7.41365 9.30236 6.87574 9.96897 6.57081 10.7567C6.32805 11.3638 6.15199 11.9975 6.04606 12.6456C5.84114 14.0631 6.07609 15.2018 6.76448 16.127C7.62326 17.2816 8.71856 17.964 10.0201 18.154C10.6089 18.2474 11.2035 18.2955 11.7991 18.2981C12.9468 18.2891 14.2707 18.1391 15.4298 17.1133C15.4451 17.1351 15.4581 17.1542 15.4706 17.1741C16.2276 18.3886 17.3715 19.0207 18.8702 19.0528C20.7938 19.0941 22.3971 18.1806 23.5063 16.4115C25.3016 13.548 25.3777 10.4658 23.732 7.25062C22.4689 4.78171 20.4355 2.78692 17.6891 1.32214ZM14.8672 11.6667C14.8721 11.8391 14.8777 12.0165 14.8787 12.1915C14.8625 12.2014 14.8491 12.2154 14.8398 12.2324C14.8305 12.2493 14.8257 12.2683 14.8257 12.2879C14.8257 12.507 14.8262 12.7262 14.8273 12.9454C14.8289 13.423 14.8307 13.917 14.8238 14.4019C14.8085 15.4844 14.3163 16.1231 13.3188 16.3548C12.1646 16.64 10.9591 16.6095 9.81961 16.2664C8.26679 15.7841 7.48617 14.5707 7.67812 12.9382L7.68547 12.8745C7.70827 12.6798 7.73173 12.4783 7.7676 12.2848C7.98047 11.1395 8.55787 10.3157 9.53297 9.76627C10.5335 9.20247 11.5082 8.92346 12.4872 8.92346C12.8392 8.92387 13.1903 8.95925 13.5358 9.02919C13.8249 9.09221 14.1067 9.18666 14.3766 9.31096C14.7399 9.47074 14.9681 9.68582 14.9004 10.2157C14.8517 10.6977 14.8407 11.1829 14.8672 11.6667Z" fill="black"/>
</g>
<defs>
<clipPath id="clip0_161_146">
<rect width="25" height="25" fill="white"/>
</clipPath>
</defs>
</svg>
