<svg width="25" height="25" viewBox="0 0 25 25" fill="none" xmlns="http://www.w3.org/2000/svg">
<path d="M21.875 12.5C21.875 10.5412 21.2614 8.63151 20.1204 7.03927C18.9795 5.44703 17.3684 4.25218 15.5135 3.62253C13.6586 2.99288 11.6531 2.96006 9.77858 3.52868C7.90408 4.09731 6.25478 5.23881 5.06231 6.79286C3.86984 8.34692 3.19411 10.2355 3.13002 12.1933C3.06593 14.1511 3.6167 16.0798 4.70497 17.7085C5.79325 19.3372 7.36436 20.5841 9.19766 21.2741C11.0309 21.9641 13.0343 22.0625 14.9264 21.5556" stroke="#4A4A4A" stroke-linecap="round"/>
<circle cx="12.5" cy="12.5" r="4.16667" stroke="#4A4A4A"/>
<path d="M16.6667 9.375V14.0625C16.6667 15.5007 17.8326 16.6667 19.2708 16.6667V16.6667C20.7091 16.6667 21.875 15.5007 21.875 14.0625V12.5" stroke="#4A4A4A" stroke-linecap="round"/>
</svg>
