<svg width="30" height="30" viewBox="0 0 30 30" fill="none" xmlns="http://www.w3.org/2000/svg">
<g clip-path="url(#clip0_318_291)">
<path d="M1.08912 29.875C0.460035 29.8683 0.130281 29.5462 0.118281 28.9916C0.116444 28.8351 0.136231 28.6789 0.177098 28.5277C0.638315 26.7767 1.12655 25.0325 1.56103 23.2745C1.75006 22.4219 2.16226 21.6353 2.75503 20.9962C4.37164 19.2919 5.9619 17.5621 7.59742 15.8768C11.8998 11.4434 16.4119 7.23223 21.0425 3.14791C22.0479 2.26114 23.0371 1.35458 24.0657 0.495715C24.6778 -0.0152029 24.9122 -0.00353244 25.5304 0.526642C26.4122 1.28319 27.2619 2.078 28.1171 2.86546C28.5776 3.28926 29.019 3.73391 29.4724 4.16543C30.0593 4.72417 30.058 5.32114 29.4984 5.91394C28.608 6.85717 27.7411 7.82226 26.8494 8.76405C26.5286 9.10309 26.1581 9.39405 25.8224 9.71934C20.569 14.8092 15.3165 19.9001 10.065 24.9918C9.23125 25.7996 8.39647 26.6068 7.54199 27.3922C7.32052 27.581 7.06663 27.7274 6.79278 27.8245C5.15017 28.4599 3.50328 29.084 1.85215 29.6967C1.60247 29.7748 1.34746 29.8344 1.08912 29.875ZM5.65864 24.4077L23.3525 7.31162C22.9656 6.94704 22.5971 6.59961 22.164 6.19114C16.0869 11.661 10.5584 17.6594 4.81317 23.4915L5.65864 24.4077ZM7.3042 26.1077C13.2104 20.3697 19.1388 14.8065 24.8007 8.98666L24.2831 8.32377C18.1763 13.8537 12.3678 19.5742 6.41619 25.1144L7.3042 26.1077ZM4.01397 22.757C9.65997 16.7776 15.3267 10.9879 21.2705 5.41206L20.6602 4.86696C14.6321 10.2846 8.90635 15.9801 3.41922 21.9458C3.56087 22.1236 3.66012 22.2411 3.75129 22.365C3.83151 22.4731 3.90194 22.5881 4.01451 22.757H4.01397ZM28.383 5.23506C27.3983 3.97047 25.2863 1.89052 24.6619 1.5613L21.8732 4.00219L26.0993 7.75312C26.8737 6.90002 27.6185 6.07846 28.3835 5.23506H28.383ZM2.59722 22.7142C2.37978 23.8387 2.18332 24.8186 2.00841 25.8025C1.98691 25.9526 2.02321 26.1053 2.1099 26.2294C2.51151 26.7334 2.93776 27.2176 3.37119 27.7276L5.9696 26.7288L2.59722 22.7142Z" fill="black"/>
</g>
<defs>
<clipPath id="clip0_318_291">
<rect width="30" height="30" fill="white"/>
</clipPath>
</defs>
</svg>
