<svg width="60" height="60" viewBox="0 0 60 60" fill="none" xmlns="http://www.w3.org/2000/svg">
<rect x="0.5" y="0.5" width="59" height="59" rx="5.5" stroke="#1C1C1C"/>
<g clip-path="url(#clip0_222_106)">
<path d="M43.1884 28.6407C42.9858 28.6194 42.7822 28.6087 42.5784 28.609C41.9121 28.6178 41.2457 28.6259 40.5709 28.634C38.4923 28.6587 36.3429 28.6844 34.229 28.7375C33.4346 28.7766 32.644 28.8757 31.8639 29.0342C31.2673 29.1409 30.9297 29.5551 30.9831 30.1153C31.0305 30.6136 31.3868 30.9356 31.936 30.9766C32.6267 31.0286 33.3388 31.0207 33.952 31.0089C35.3003 30.9829 36.6484 30.9545 37.9966 30.9235L38.2555 30.9178C39.4458 30.8914 40.636 30.8661 41.8263 30.8418C42.0439 30.8371 42.2622 30.8514 42.5387 30.869L42.5772 30.8715L42.7933 30.8848C42.6101 35.2926 40.9453 38.4277 37.7078 40.467C34.2395 42.6515 30.4628 43.4425 26.4828 42.818C23.8483 42.4044 21.7388 41.1434 20.2128 39.0696C18.1469 36.2628 17.0552 33.2159 16.9679 30.0134C16.8242 24.7564 19.2809 20.6803 23.8848 18.5361C25.6633 17.7081 27.1719 17.2396 28.6327 17.0615C32.7097 16.5646 36.0087 17.5329 38.7162 20.0233C38.7446 20.0493 38.7724 20.0764 38.8059 20.1089C38.8963 20.2026 38.9958 20.2867 39.1027 20.3599C39.5466 20.6455 40.0044 20.6101 40.3588 20.2623C40.7401 19.8888 40.7845 19.3791 40.472 18.9648C40.192 18.603 39.8647 18.282 39.4992 18.0108C37.2227 16.267 34.4954 15.2404 31.6536 15.0575C27.6042 14.7786 23.8001 15.9225 20.345 18.4588C17.5969 20.4764 15.897 23.3132 15.294 26.8908C14.6966 30.4336 15.2746 34.0013 17.0115 37.4947C17.8885 39.2582 18.8657 40.6414 19.999 41.7235C22.195 43.8207 24.9544 44.8797 28.4346 44.9608C28.5699 44.9639 28.7045 44.9655 28.8397 44.9655C31.3615 44.9655 33.8799 44.4191 36.5384 43.2954C39.2165 42.1631 41.2956 40.4681 42.7175 38.256C44.1063 36.0959 44.8358 33.4966 44.8865 30.5304C44.91 29.1657 44.545 28.7592 43.1884 28.6407Z" fill="black"/>
</g>
<defs>
<clipPath id="clip0_222_106">
<rect width="30" height="30" fill="white" transform="translate(15 15)"/>
</clipPath>
</defs>
</svg>
