<svg width="23" height="25" viewBox="0 0 33 35" fill="none" xmlns="http://www.w3.org/2000/svg">
<path d="M2.0625 17.0326C2.0625 14.3925 2.0625 13.0724 2.62858 11.9121C3.19465 10.7518 4.25775 9.89271 6.38396 8.17457L8.44646 6.5079C12.2895 3.40237 14.2111 1.84961 16.5 1.84961C18.7889 1.84961 20.7105 3.40237 24.5535 6.5079L26.616 8.17457C28.7422 9.89271 29.8053 10.7518 30.3714 11.9121C30.9375 13.0724 30.9375 14.3925 30.9375 17.0326V25.2778C30.9375 28.9442 30.9375 30.7775 29.7293 31.9165C28.5211 33.0555 26.5766 33.0555 22.6875 33.0555H10.3125C6.42341 33.0555 4.47887 33.0555 3.27068 31.9165C2.0625 30.7775 2.0625 28.9442 2.0625 25.2778V17.0326Z" stroke="currentColor"/>
<path d="M21.6562 33.0556V22.3889C21.6562 21.8366 21.2085 21.3889 20.6562 21.3889H12.3437C11.7915 21.3889 11.3438 21.8366 11.3438 22.3889V33.0556" stroke="currentColor" stroke-linecap="round" stroke-linejoin="round"/>
</svg>
