<svg width="20" height="20" viewBox="0 0 20 20" fill="none" xmlns="http://www.w3.org/2000/svg">
<path d="M10.3202 7.78542C10.3122 7.77518 10.3021 7.76688 10.2906 7.76109C10.2791 7.75531 10.2665 7.75219 10.2537 7.75195C9.96922 7.75762 9.7949 7.89519 9.73551 8.16067C9.66877 8.43225 9.61966 8.70807 9.58845 8.98633C9.37761 11.1909 9.3044 13.4071 9.36933 15.6213C9.37966 15.9367 9.41761 16.3013 9.62022 16.6151C9.68212 16.6952 9.76175 16.7588 9.85246 16.8008C9.89292 16.8241 9.93475 16.848 9.97481 16.8756C9.99128 16.8868 10.0112 16.8916 10.0308 16.8888C10.0505 16.886 10.0684 16.876 10.0814 16.8606C10.1158 16.8195 10.1523 16.7823 10.1884 16.7464C10.2689 16.6797 10.3308 16.5925 10.3679 16.4933L10.3795 16.4495C10.4614 16.1427 10.546 15.8257 10.5491 15.5064C10.5677 13.5795 10.5721 11.6203 10.5764 9.72566L10.5794 8.49898C10.588 8.36542 10.5736 8.23135 10.537 8.10292C10.4993 8.01138 10.4453 7.92783 10.3779 7.85654C10.3569 7.83191 10.3369 7.80826 10.3202 7.78542Z" fill="black"/>
<path d="M10.993 6.14074C11.2442 5.64786 11.1951 5.13618 10.851 4.66023C10.4857 4.15519 10.0087 4.03578 9.43318 4.30514C9.41456 4.3139 9.39986 4.32955 9.39201 4.34897C9.36275 4.42115 9.33271 4.49213 9.30298 4.56228C9.13736 4.95228 8.98143 5.32064 9.02891 5.75624C9.08254 6.24872 9.38642 6.60995 9.822 6.69882C9.8957 6.71393 9.97066 6.72158 10.0458 6.72167C10.2404 6.72353 10.4318 6.67031 10.5988 6.56783C10.7659 6.46535 10.9023 6.31759 10.993 6.14074ZM10.0197 5.33522L10.004 5.57291C9.95553 5.52949 9.92191 5.49344 9.92104 5.47294C9.92025 5.44783 9.95882 5.3993 10.0198 5.33522H10.0197Z" fill="black"/>
<path d="M0.353775 7.24789C-0.530039 10.8199 0.243899 13.9711 2.65569 16.6154C2.71844 16.6837 2.78247 16.752 2.84642 16.8178C4.142 18.15 5.7557 18.9725 7.03429 19.5449C7.58309 19.7914 10.399 20.0907 11.1609 19.974C15.6886 19.2787 18.6682 16.6527 19.706 12.2594C19.9041 11.3988 20.0028 10.5172 19.9999 9.63278C20.0048 7.54946 19.1518 5.12743 17.3926 3.31346C17.2115 3.15947 17.031 2.99995 16.8565 2.84535C16.478 2.51077 16.0868 2.16433 15.6775 1.86891C12.551 -0.39395 9.30239 -0.40659 6.02249 0.793361C3.05285 1.87865 1.14581 4.05082 0.353775 7.24789ZM6.03522 1.86258C8.91299 0.632784 11.8005 0.41576 14.6168 2.25765C15.1317 2.59478 16.5046 3.73574 16.7206 3.90711L16.7346 3.91763L16.746 3.93073C17.8448 5.12884 19.1029 7.31953 19.0751 9.5715C19.066 10.5344 18.9392 11.4924 18.6978 12.4228C17.9824 15.0966 16.2722 17.0452 13.4692 18.378C10.6197 19.781 6.53322 18.3626 5.44595 17.6246C4.24422 16.7797 3.1927 15.7286 2.33732 14.5173C0.995892 12.5644 0.694935 9.7571 1.41577 7.19083C1.75307 6.0059 2.34261 4.913 3.1416 3.99141C3.94059 3.06982 4.92902 2.34264 6.03522 1.86258Z" fill="black"/>
</svg>
