<svg width="259" height="229" viewBox="0 0 259 229" fill="none" xmlns="http://www.w3.org/2000/svg">
<path d="M126.803 230.119C109.452 236.491 91.8403 239.504 73.5132 233.33C61.9103 229.419 53.7787 221.657 48.9846 210.207C44.9957 200.678 46.7206 194.927 55.7427 190.119C69.8334 182.613 83.9899 175.189 98.3477 168.206C112.394 161.373 126.699 155.071 140.944 148.649C152.429 143.474 158.375 146.446 159.755 159.434C160.975 169.511 160.913 179.681 159.569 189.69C156.506 209.807 145.423 222.549 126.803 230.119ZM76.9463 222.749C90.1793 190.466 115.936 181.14 148.307 181.596C147.781 174.849 147.256 168.122 146.575 159.387L55.3691 200.525C59.7038 212.039 66.2859 219.775 76.9463 222.749ZM87.2316 224.571C106.941 227.574 142.512 216.013 144.88 193.871C126.81 186.174 93.1133 203.885 87.2316 224.571Z" fill="#FFC73A"/>
<path d="M199.323 115.545C203.337 125.216 197.996 136.029 188.082 139.474C176.161 143.616 160.912 138.807 152.793 128.538C149.882 124.857 150.47 121.332 152.795 118.085C160.457 107.383 170.818 102.317 184.044 104.073C191.37 105.05 196.33 109.546 199.323 115.545ZM166.183 122.912L166.596 124.859C169.095 126.512 171.916 127.576 174.849 127.969C177.783 128.362 180.752 128.076 183.535 127.13C185.526 126.48 186.78 123.614 188.374 121.766C186.153 120.329 183.627 117.39 181.772 117.74C176.432 118.749 171.36 121.092 166.183 122.911L166.183 122.912Z" fill="#43C5E6"/>
<path d="M16.5642 226.937C13.9478 227.758 11.1623 227.913 8.4475 227.391C5.73265 226.869 3.16979 225.684 0.97942 223.939C-4.96762 219.382 -5.47713 212.778 -4.17999 206.122C-1.73482 193.543 5.74371 184.876 16.9138 179.53C21.5309 177.321 24.9901 178.564 26.0484 183.509C28.0951 192.506 29.4531 201.638 30.11 210.822C30.5187 217.9 26.3225 222.986 16.5642 226.937ZM17.1775 190.339C10.3654 195.896 7.04007 201.588 6.29961 208.486C5.94212 211.826 5.19241 215.613 10.2272 216.442C15.1313 217.25 19.4536 214.781 19.3702 210.087C19.2568 203.781 18.03 197.475 17.1758 190.334L17.1775 190.339Z" fill="#43C5E6"/>
<path d="M38.669 143.244C32.0905 140.869 26.0383 138.721 20.0139 136.491C17.4865 135.556 14.9766 134.541 12.5335 133.391C9.88829 132.147 6.86139 130.732 8.13449 127.015C9.41909 123.262 12.5218 124.253 15.368 125.102C21.5588 126.947 27.7385 128.839 33.9608 130.558C37.5866 131.56 41.2916 132.225 44.9509 133.111C51.2905 134.639 54.5834 139.062 52.4177 145.185C49.3552 153.44 45.7475 161.465 41.6192 169.205C39.9386 172.473 36.5042 174.555 32.5457 172.57C28.2928 170.436 28.1075 166.317 29.5895 162.647C32.1442 156.33 35.3301 150.291 38.669 143.244Z" fill="#FFC73A"/>
<path d="M118.76 111.429C123.547 111.824 127.259 111.962 130.927 112.481C134.462 112.813 137.952 113.585 141.32 114.778C142.213 115.286 142.977 116.004 143.545 116.871C144.114 117.738 144.47 118.729 144.584 119.759C144.548 121.374 142.3 124.29 141.077 124.237C131.235 123.81 121.303 123.463 111.621 121.689C107.525 120.938 106.102 115.553 108.005 111.597C113.359 100.47 119.137 89.5521 125.105 78.7596C125.775 77.5455 128.895 76.9772 130.538 77.4431C131.438 77.699 132.377 80.9712 131.977 82.4914C131.159 85.5776 129.445 88.3984 128.09 91.3229C125.092 97.7863 122.094 104.244 118.76 111.429Z" fill="#FFC73A"/>
<path d="M-29.9297 180.04C-22.719 225.468 1.52933 257.982 42.168 276.688C43.223 277.169 44.2921 277.643 45.3467 278.085C66.7474 287.116 89.3304 288.733 106.837 289.099C114.355 289.265 148.232 279.006 156.436 273.954C205.182 243.911 226.706 199.173 217.27 143.54C215.362 132.667 212.207 122.036 207.871 111.868C197.785 87.8585 176.176 64.1242 147.092 51.8016C144.257 50.9115 141.403 49.9526 138.641 49.0229C132.655 47.0119 126.465 44.9284 120.314 43.5182C73.3035 32.6839 35.8396 48.3492 3.91748 78.1291C-24.9866 105.085 -36.3719 139.376 -29.9297 180.04ZM9.27089 90.3838C36.4179 62.2175 68.6065 45.6644 109.997 53.163C117.566 54.5383 138.926 60.9933 142.248 61.9132L142.459 61.9673L142.654 62.0621C161.137 70.5083 186.285 89.607 196.926 115.67C201.508 126.801 204.711 138.448 206.46 150.335C211.238 184.601 201.032 215.361 175.247 244.35C149.268 274.372 95.3165 277.933 79.2055 274.726C61.2573 270.848 44.0349 263.865 28.2909 254.083C3.34137 238.125 -13.7881 207.27 -17.9803 174.214C-19.8636 158.93 -18.3953 143.478 -13.6819 128.978C-8.96848 114.479 -1.12804 101.295 9.27089 90.3838Z" fill="#FFC73A"/>
</svg>
