<svg width="28" height="26" viewBox="0 0 28 26" fill="none" xmlns="http://www.w3.org/2000/svg">
<g clip-path="url(#clip0_161_342)">
<path d="M1.06654 15.9861C1.16788 16.054 1.27006 16.1205 1.37818 16.191L1.47297 16.2529C0.753818 16.9587 0.312366 17.7112 0.124366 18.551C-0.0517554 19.3382 0.178542 20.0017 0.808966 20.5245C0.891754 20.5931 0.97563 20.6603 1.06157 20.7291L1.13975 20.7917C0.661936 21.4137 0.402771 22.0383 0.347377 22.7C0.278286 23.5277 0.570646 24.123 1.21622 24.4697C1.69234 24.7253 2.16034 24.9631 2.65319 25.064C3.63023 25.2612 4.61761 25.405 5.61079 25.4951C6.99673 25.6236 8.49926 25.7294 10.2047 25.8183C11.1547 25.8678 12.2583 25.9163 13.4058 25.9163C13.5828 25.9163 13.7606 25.9151 13.9391 25.9126C15.2404 25.8945 16.3997 25.8188 17.4206 25.0713C17.5376 24.9735 17.6837 24.9162 17.8371 24.9079C17.9903 24.8997 18.142 24.9411 18.2691 25.0259C18.4579 25.1176 18.6617 25.1759 18.8711 25.1981C18.9162 25.2055 18.9611 25.213 19.0053 25.2211C20.7879 25.5484 22.6126 25.5086 24.3771 25.4698C24.6384 25.4641 24.8996 25.4587 25.1608 25.4538C26.1297 25.4368 26.8018 24.9022 27.1045 23.9076C27.2098 23.5732 27.2829 23.2299 27.3227 22.882L27.3807 22.3317C27.5093 21.1151 27.6424 19.8582 27.7308 18.618C27.9321 15.7906 27.9983 12.8865 27.9274 9.98631C27.9133 9.41598 27.8799 8.86008 27.828 8.33376C27.7604 7.64953 27.4257 7.13788 26.86 6.85391C26.3925 6.61919 25.8627 6.35299 25.3052 6.22848C23.613 5.85016 21.8699 5.94224 20.3319 6.02274C20.1753 6.03097 20.0134 6.03157 19.857 6.03205C19.3357 6.03395 18.7976 6.03598 18.275 6.30719C17.7509 5.03784 16.8702 4.07501 16.0747 3.29894C15.7635 2.99545 15.4505 2.69355 15.136 2.39324C14.6416 1.9188 14.1299 1.42826 13.6384 0.935808C12.8202 0.117165 11.7676 -0.159652 10.4205 0.0890176C10.1996 0.129682 9.98932 0.213363 9.80183 0.335146C9.61435 0.456928 9.45348 0.614353 9.3287 0.798172C9.06017 1.19458 8.96267 1.67969 9.05758 2.14683C9.11344 2.453 9.20588 2.75161 9.33297 3.03644C9.62533 3.66318 9.94252 4.27681 10.2969 4.95662C10.3416 5.04214 10.3884 5.12646 10.4353 5.21114C10.61 5.49393 10.742 5.80023 10.8271 6.12042C10.8058 6.12603 10.7859 6.13163 10.7673 6.137C10.7198 6.15301 10.6705 6.16306 10.6205 6.16693C10.0265 6.17298 9.43258 6.17803 8.83864 6.18208C7.91392 6.18924 6.95781 6.19651 6.01756 6.20999C5.0163 6.22517 4.02188 6.37529 3.06205 6.65616C2.28639 6.87077 1.59013 7.30104 1.05684 7.89534C-0.000255818 9.08669 0.0407316 10.4373 1.16594 11.5073C1.17204 11.5217 1.17646 11.5368 1.17914 11.5522C1.18132 11.5613 1.18364 11.571 1.18619 11.5814C0.635604 12.1321 0.259029 12.8281 0.102053 13.585C-0.12728 14.5965 0.19733 15.4039 1.06654 15.9861ZM3.13925 12.1059C3.5521 12.012 3.83612 11.7394 3.86303 11.4113C3.89939 10.9722 3.44655 10.8011 3.17612 10.699C3.03064 10.6477 2.88192 10.6056 2.7309 10.5732C2.61975 10.547 2.50485 10.5198 2.39588 10.4851C1.88364 10.3222 1.72508 10.0438 1.84859 9.52427C1.93739 9.11426 2.15577 8.74241 2.47246 8.46197C3.15707 7.86648 3.85102 7.56593 4.65635 7.51595L4.73658 7.51094C6.45779 7.40444 8.23647 7.29412 9.98981 7.45549C10.4695 7.49463 10.9519 7.48847 11.4304 7.43712C11.7566 7.40563 11.9706 7.31034 12.0849 7.14575C12.194 6.98796 12.2085 6.77364 12.1275 6.48979C11.9108 5.76617 11.6542 5.05468 11.3589 4.3585C11.22 4.01955 11.062 3.68215 10.9094 3.35583C10.7213 2.95403 10.5269 2.53838 10.3676 2.11916C10.2384 1.77938 10.227 1.5418 10.3326 1.39307C10.4408 1.24029 10.6833 1.16504 11.072 1.16969C11.775 1.17386 12.2921 1.37852 12.7012 1.81372C13.0943 2.23187 13.5045 2.64727 13.9012 3.04896C14.5277 3.68322 15.1755 4.33906 15.7693 5.01971C16.9435 6.36551 17.4784 7.73588 17.4057 9.20917C17.3725 9.966 17.3818 10.7241 17.4337 11.4799C17.4542 12.068 17.4254 12.6568 17.348 13.2404C17.3103 13.5991 17.2714 13.97 17.2568 14.3376C17.2022 15.7113 17.169 17.1086 17.1368 18.46C17.1176 19.2677 17.0984 20.0754 17.0748 20.8829L17.0737 20.9163C17.0553 21.5464 17.0362 22.1978 16.9588 22.8304C16.8282 23.8962 16.4343 24.2866 15.3974 24.3772C14.5925 24.4476 13.767 24.4557 12.9688 24.4634C12.662 24.4664 12.3553 24.4694 12.0488 24.4753C11.7216 24.482 11.3891 24.4802 11.067 24.4786C10.9377 24.4779 10.8081 24.4774 10.6783 24.477L10.677 24.4567L10.6229 24.4529C10.0194 24.4092 9.41575 24.3667 8.81187 24.3257C7.25102 24.2177 5.63696 24.106 4.0532 23.9605C3.41344 23.9017 2.77198 23.6812 2.22895 23.4733C1.76385 23.2951 1.66725 23.0989 1.77949 22.5608C1.84416 22.2482 1.95347 21.9461 2.10412 21.6637C2.30642 21.2901 2.56109 21.1301 2.9337 21.1472C3.21512 21.1476 3.49109 21.071 3.7309 20.9261C3.92484 20.8151 4.13576 20.5753 4.13842 20.3817C4.14109 20.188 3.92909 19.9389 3.73709 19.8364C3.45331 19.7008 3.1508 19.6071 2.83927 19.5582C2.36036 19.462 2.04255 19.364 1.93891 19.1733C1.848 19.0063 1.89418 18.7507 2.10921 18.2311C2.43176 17.4526 2.86676 16.9646 3.47888 16.6951C3.66782 16.6284 3.82755 16.4994 3.93115 16.3302C4.03475 16.161 4.0759 15.9618 4.04764 15.7662C4.0183 15.3285 3.68642 15.1579 3.3657 15.0494C3.2023 14.9939 3.03309 14.9499 2.86945 14.9075C2.69842 14.863 2.52144 14.8171 2.35368 14.7584C1.84084 14.5795 1.71212 14.3751 1.77988 13.8486C1.91164 12.8275 2.33102 12.2898 3.13987 12.1055L3.13925 12.1059ZM20.8134 24.0956C20.1956 24.0713 19.5801 24.0063 18.971 23.901C18.382 23.8055 18.3853 23.7698 18.4406 23.1606C18.5433 22.0298 18.6271 20.8522 18.6973 19.5605L18.7304 18.9544C18.813 17.4517 18.8984 15.8964 18.9302 14.3659C18.961 12.8854 18.9473 11.3796 18.934 9.92346C18.9308 9.569 18.9277 9.21458 18.925 8.8602C18.9182 8.59165 18.8978 8.3236 18.8637 8.05706C18.8516 7.94364 18.8385 7.82724 18.8274 7.7063C19.3204 7.69235 19.8134 7.66909 20.291 7.64667C21.7721 7.57666 23.171 7.51059 24.594 7.69915C24.6349 7.70463 24.6757 7.70857 24.7167 7.71238C24.7801 7.71847 24.8399 7.72431 24.8991 7.73528C26.2116 7.98049 26.4058 8.21235 26.3833 9.50269L26.3732 10.0752C26.3194 13.155 26.2641 16.3396 26.1628 19.4702C26.1271 20.5764 25.9899 21.6996 25.8572 22.7858L25.817 23.116C25.7185 23.927 25.5547 24.0857 24.7856 24.1128C23.4597 24.1591 22.1504 24.1311 20.814 24.0956H20.8134Z" fill="black"/>
<path d="M23.2484 8.81502C22.509 8.47022 21.5062 8.6397 20.8638 9.21802C20.347 9.68316 20.1913 10.2648 20.4014 10.9463C20.6939 11.8954 21.5327 12.459 22.7027 12.4925C22.7304 12.4933 22.7576 12.4937 22.7847 12.4937C23.2772 12.4937 23.666 12.3625 23.9414 12.1027C24.2586 11.8037 24.4239 11.3355 24.4325 10.7114V10.7067C24.3757 9.79169 23.9769 9.15457 23.2484 8.81502ZM23.2727 10.7806C23.2716 10.8642 23.253 10.9466 23.2181 11.0228C23.1833 11.0989 23.1328 11.1672 23.07 11.2234C22.9685 11.312 22.8504 11.3799 22.722 11.4231C22.5936 11.4663 22.4579 11.4839 22.3226 11.475C21.962 11.4609 21.521 10.9239 21.509 10.4843C21.509 10.4092 21.5242 10.3349 21.5536 10.2656C21.5831 10.1964 21.6261 10.1335 21.6804 10.0808C21.8578 9.90862 22.0963 9.81118 22.3455 9.8091H22.3627C22.5915 9.81119 22.8101 9.90226 22.9708 10.0624C23.067 10.1565 23.1432 10.2684 23.1951 10.3917C23.2468 10.515 23.2733 10.6472 23.2727 10.7806Z" fill="black"/>
</g>
<defs>
<clipPath id="clip0_161_342">
<rect width="28" height="26" fill="white"/>
</clipPath>
</defs>
</svg>
