<svg width="30" height="30" viewBox="0 0 30 30" fill="none" xmlns="http://www.w3.org/2000/svg">
<g clip-path="url(#clip0_318_295)">
<path d="M2.50111 23.2242C2.61658 22.4862 2.92527 21.8281 3.21205 21.2816C3.69572 20.3596 4.39454 19.5741 5.07046 18.8148C5.1809 18.6905 5.2911 18.5661 5.40106 18.4416C6.71334 16.9477 8.07044 15.4042 9.61771 14.0173C10.7368 13.0143 12.03 12.6303 13.5701 12.8429C13.6755 12.8576 13.7812 12.8709 13.8871 12.8841C14.4923 12.9601 15.0642 13.0319 15.5856 13.3311C15.7084 13.3962 15.8409 13.4412 15.9781 13.4647C16.0601 13.4795 16.1442 13.4776 16.2254 13.4592C16.3065 13.4408 16.3832 13.4063 16.4505 13.3576C16.5303 13.303 16.5982 13.2331 16.6503 13.1519C16.7024 13.0708 16.7374 12.9801 16.7536 12.8852C16.7843 12.7005 16.766 12.5109 16.7005 12.3352C16.635 12.1597 16.5244 12.004 16.3798 11.8837C15.9244 11.4757 15.3649 11.1993 14.7621 11.0847C14.1016 10.9471 13.4335 10.8479 12.7614 10.7878C11.2741 10.6515 9.98053 11.0354 8.91644 11.9295C7.88335 12.781 6.89435 13.6838 5.95318 14.6344C4.96195 15.6559 4.01629 16.7513 3.10184 17.8106L2.69776 18.2783C1.9021 19.2073 1.24406 20.2441 0.743481 21.3572C0.3377 22.2478 0.116975 23.2102 0.0944953 24.1872V24.1901C0.0908219 26.2294 0.870457 27.7709 2.41197 28.772C3.61062 29.5503 4.85237 29.9403 6.12388 29.9403C6.90325 29.9357 7.67589 29.797 8.40755 29.5306C8.88253 29.362 9.30595 29.2 9.70195 29.0352C11.0971 28.455 12.3311 27.517 13.7028 25.9944C14.5036 25.1058 15.2914 24.18 16.0538 23.2846C16.441 22.8298 16.8292 22.3758 17.2184 21.9227C17.3483 21.7723 17.486 21.6226 17.6192 21.4776C17.8485 21.2284 18.0857 20.9705 18.2956 20.6957C18.512 20.4238 18.6666 20.109 18.7493 19.7726C18.7749 19.6452 18.7657 19.5133 18.7227 19.3906C18.6796 19.2679 18.6043 19.159 18.5044 19.0748C18.3964 18.979 18.2649 18.913 18.1231 18.8836C17.9812 18.8542 17.834 18.8624 17.6963 18.9073C17.4432 18.9911 17.2096 19.1242 17.0093 19.299C16.7671 19.526 16.5402 19.7686 16.3302 20.025L16.2349 20.1361C15.7434 20.7068 15.253 21.2784 14.7637 21.8508C13.9394 22.8136 13.0869 23.8091 12.2402 24.781C10.9055 26.3125 9.2418 27.2541 7.29327 27.5796C6.6079 27.7065 5.90273 27.6816 5.22817 27.5068C3.23066 26.9536 2.42066 25.8867 2.43229 23.8245C2.43822 23.651 2.45711 23.478 2.48885 23.3072L2.50111 23.2242Z" fill="black"/>
<path d="M26.48 0.213338C25.5827 0.00273031 24.6688 0.00685345 23.7847 0.0124405L23.5744 0.013419C22.5621 0.0173057 21.6168 0.322404 20.6846 0.945967C19.1717 1.93721 17.7774 3.09587 16.5285 4.39962C15.6899 5.28832 14.8125 6.2635 13.8469 7.38067C13.3743 7.92723 12.9383 8.6302 13.29 9.69562C13.2953 9.7114 13.3037 9.72599 13.3147 9.7385C13.3258 9.75101 13.3392 9.76121 13.3543 9.76851C13.3695 9.77576 13.386 9.77995 13.4028 9.78087C13.4196 9.78179 13.4365 9.7794 13.4523 9.77384C14.2972 9.47275 14.9028 9.11956 15.4149 8.62839L15.4425 8.60179C16.0865 7.98393 16.7527 7.34496 17.3726 6.68204C18.8827 5.06739 20.242 3.86009 21.6502 2.88211C22.3457 2.38381 23.1816 2.1151 24.0394 2.11402C24.7016 2.10183 25.3635 2.15701 26.0143 2.27871C26.9775 2.47122 28.0225 3.17325 28.0645 4.56588C28.0994 5.70685 27.8671 6.58485 27.3333 7.32939C27.116 7.63242 26.9014 7.93815 26.6868 8.24398C26.0036 9.21758 25.2972 10.2237 24.5065 11.1268C23.5112 12.2629 22.1394 13.6881 20.3494 14.6347C18.8825 15.4111 17.2163 15.7387 15.5617 15.5763C14.8722 15.5314 14.2201 15.2491 13.7182 14.7779C13.5028 14.5718 13.2716 14.3827 13.0267 14.2121C12.6929 13.9846 12.3033 13.9951 12.0571 14.2389C11.9259 14.3538 11.8372 14.509 11.8054 14.6798C11.7736 14.8506 11.8005 15.0269 11.8817 15.1808C12.0071 15.4508 12.1571 15.7089 12.33 15.9518C12.8925 16.7023 13.7014 17.2038 14.8035 17.4846C15.3074 17.6112 15.8254 17.6741 16.3451 17.6718C17.1454 17.657 17.9411 17.5473 18.7152 17.3453C20.2948 16.9663 21.7553 16.1289 23.1802 14.785C25.5856 12.5163 27.5027 9.87163 28.9041 7.82118C29.5334 6.89968 29.8806 5.81743 29.904 4.70472C29.9311 3.82208 29.8598 2.69531 29.062 1.81037C28.298 0.9643 27.454 0.441921 26.48 0.213338Z" fill="black"/>
</g>
<defs>
<clipPath id="clip0_318_295">
<rect width="30" height="30" fill="white"/>
</clipPath>
</defs>
</svg>
