<svg width="25" height="25" viewBox="0 0 25 25" fill="none" xmlns="http://www.w3.org/2000/svg">
<path d="M4.6875 13.8958C4.6875 12.0102 4.6875 11.0674 5.27329 10.4816C5.85907 9.89583 6.80188 9.89583 8.6875 9.89583H16.3125C18.1981 9.89583 19.1409 9.89583 19.7267 10.4816C20.3125 11.0674 20.3125 12.0102 20.3125 13.8958V15.3542C20.3125 18.1826 20.3125 19.5968 19.4338 20.4755C18.5551 21.3542 17.1409 21.3542 14.3125 21.3542H10.6875C7.85907 21.3542 6.44486 21.3542 5.56618 20.4755C4.6875 19.5968 4.6875 18.1826 4.6875 15.3542V13.8958Z" stroke="#4A4A4A"/>
<path d="M17.1875 9.89583V8.33333C17.1875 5.74449 15.0888 3.64583 12.5 3.64583V3.64583C9.91117 3.64583 7.8125 5.74449 7.8125 8.33333V9.89583" stroke="#4A4A4A" stroke-linecap="round"/>
</svg>
