<svg width="20" height="25" viewBox="0 0 20 25" fill="none" xmlns="http://www.w3.org/2000/svg">
<g clip-path="url(#clip0_161_151)">
<path d="M10.881 0.0646973C11.157 0.110843 11.4336 0.154906 11.7091 0.203552C14.0762 0.622198 15.6217 1.85324 16.3749 3.8472C16.7474 4.83334 16.8981 5.85833 16.9738 6.89135C17.0363 7.74458 17.0876 8.59844 17.146 9.45188C17.1544 9.575 17.1743 9.6975 17.1913 9.84167C17.3676 9.89844 17.5316 9.96521 17.7032 10.0043C18.9312 10.2828 19.4889 11.0459 19.6729 12.0794C19.7136 12.3085 19.7466 12.5388 19.7612 12.7696C19.9474 15.7056 20.0019 18.6427 19.7969 21.5795C19.7648 22.2954 19.5112 22.9902 19.0631 23.5899C18.7083 24.074 18.1645 24.4286 17.5331 24.588C16.513 24.8409 15.4568 24.9649 14.3966 24.956C11.0984 24.9576 7.8002 24.9339 4.50203 24.885C3.81008 24.8663 3.12155 24.7923 2.44501 24.6639C1.01644 24.4115 0.286915 23.7159 0.119296 22.4515C0.0458504 21.8674 0.0189975 21.2797 0.0389365 20.6924C0.101436 18.4313 0.174414 16.1702 0.27358 13.9102C0.316557 12.9282 0.480483 11.9674 1.12155 11.1086C1.59132 10.4794 2.20084 10.0559 3.03275 9.87387C3.18953 9.83959 3.34227 9.78916 3.56299 9.72801C3.59299 9.48957 3.62918 9.23135 3.65751 8.97229C3.78215 7.83844 3.84513 6.69604 4.04775 5.57302C4.19027 4.78301 4.43717 4.01018 4.78346 3.27001C5.55346 1.63386 7.06323 0.727714 8.96799 0.276464C9.3162 0.193964 9.6718 0.134896 10.0239 0.0651041L10.881 0.0646973ZM9.35858 23.845C9.35858 23.8213 9.35965 23.7975 9.36025 23.7739C10.3991 23.7739 11.4391 23.7996 12.4766 23.7674C13.8176 23.7257 15.1642 23.7349 16.4893 23.4874C17.5398 23.2913 17.9801 22.9328 18.1 22.0114C18.1691 21.4097 18.2016 20.8052 18.1974 20.2005C18.2026 19.5416 18.1033 18.8786 18.156 18.2241C18.2908 16.5455 18.136 14.8764 18.0349 13.2046C18.0167 12.9025 18.0068 12.598 17.9618 12.2983C17.9023 11.8993 17.6988 11.59 17.1961 11.5078C16.3175 11.3646 15.4461 11.1404 14.5603 11.0895C12.7932 10.9877 11.0194 10.9677 9.24775 10.9371C7.40763 10.9052 5.59299 11.134 3.78346 11.3978C3.55236 11.4245 3.33084 11.4955 3.1348 11.6058C2.93875 11.7161 2.773 11.8631 2.64942 12.036C2.21346 12.6146 2.11882 13.2727 2.07906 13.9231C1.91775 16.5558 1.79715 19.1904 1.66977 21.8246C1.65692 22.0901 1.7018 22.3577 1.71572 22.6245C1.74061 23.0978 2.02453 23.3888 2.54406 23.4875C2.97705 23.5848 3.41867 23.6498 3.86418 23.6819C5.69489 23.7513 7.52703 23.793 9.35858 23.845ZM15.2276 9.50854C15.1592 8.50063 15.1363 7.57491 15.0228 6.65772C14.9137 5.77626 14.7932 4.88417 14.5292 4.03198C14.1495 2.80625 13.2545 1.94718 11.7926 1.61916C11.0437 1.43674 10.2531 1.43028 9.50037 1.60042C7.90584 1.98 6.75799 2.78176 6.24049 4.2103C5.7343 5.6078 5.46287 7.04219 5.26156 8.49073C5.21644 8.81604 5.18656 9.14301 5.14346 9.52395L6.42442 9.38449C6.48394 8.58428 6.53275 7.83948 6.5943 7.09542C6.65918 6.3125 6.7868 5.53624 7.10751 4.79957C7.61513 3.63364 8.97834 2.77366 10.4222 2.79491C11.866 2.81616 12.9485 3.40374 13.5062 4.61509C13.6764 4.976 13.8245 5.34459 13.9499 5.71927C14.2528 6.65323 14.2868 7.61426 14.2855 8.5777C14.2855 8.85614 14.3077 9.13449 14.3212 9.43647L15.2276 9.50854ZM12.3631 9.30125C12.3505 8.32063 12.4673 7.32709 12.2718 6.34293C12.1763 5.85373 12.0218 5.37477 11.811 4.91406C11.4916 4.22469 10.7022 3.94927 9.8937 4.18937C9.58045 4.27211 9.29434 4.41916 9.0592 4.61825C8.82406 4.81734 8.64671 5.06274 8.54192 5.33397C8.0337 6.5997 7.95858 7.92844 7.7443 9.30125H12.3631Z" fill="black"/>
<path d="M8.89773 19.7256C8.87082 19.2855 8.89023 18.8666 8.50868 18.4806C8.13713 18.1048 8.23856 17.5103 8.61237 17.0952C8.96749 16.7009 9.48832 16.5848 10.0837 16.7664C11.1023 17.0776 11.3663 17.7657 10.7292 18.5428C10.6527 18.6327 10.5998 18.7362 10.5742 18.846C10.5486 18.9558 10.551 19.0692 10.5811 19.1782C10.6595 19.5981 10.6846 20.0242 10.6559 20.449C10.6152 20.9105 10.2274 21.2106 9.7988 21.2181C9.34916 21.226 8.96975 20.902 8.90285 20.4188C8.88532 20.188 8.88361 19.9565 8.89773 19.7256Z" fill="black"/>
</g>
<defs>
<clipPath id="clip0_161_151">
<rect width="20" height="25" fill="white"/>
</clipPath>
</defs>
</svg>
