<svg width="27" height="30" viewBox="0 0 27 30" fill="none" xmlns="http://www.w3.org/2000/svg">
<g clip-path="url(#clip0_224_60)">
<path d="M16.2117 4.4223C16.1651 3.6344 15.6389 3.14059 14.8386 3.13356H14.8233C14.2795 3.13356 13.8555 3.39201 13.4784 3.67144C13.3684 3.75278 13.2606 3.83699 13.1342 3.93578L13.0881 3.97168L13.0803 3.90891C13.0613 3.75615 13.0464 3.63554 13.0239 3.5119C12.91 2.88855 12.5487 2.55992 11.9195 2.50707C11.6986 2.48321 11.4752 2.51025 11.2664 2.58613C11.0577 2.66201 10.8691 2.78469 10.7151 2.94477C10.4726 3.19609 10.2516 3.46725 10.0543 3.7554C8.76266 5.66044 7.58697 7.64153 6.53365 9.68788C6.47307 9.79645 6.40596 9.90123 6.33271 10.0017L6.3022 10.0455L6.26968 9.98273C6.20262 9.85432 6.14608 9.74611 6.08844 9.63866C5.65164 8.78366 4.92484 8.11183 4.03797 7.74327C3.78197 7.62865 3.49984 7.58492 3.22114 7.61665C2.94243 7.6484 2.67741 7.75443 2.45376 7.92364C2.23068 8.10682 2.06097 8.34657 1.96241 8.6178C1.86385 8.88902 1.84004 9.18175 1.89352 9.46532C1.93245 9.683 1.99018 9.8969 2.06606 10.1046C2.39648 11.0674 2.53478 12.0857 2.4731 13.1017C2.39649 14.4574 2.37135 15.7992 2.3485 17.2869C2.34532 17.6227 2.40193 17.9563 2.51566 18.2723C2.9975 19.6652 3.90665 20.8707 5.11369 21.7174C5.46921 21.9647 5.58374 22.1922 5.56741 22.6188L5.56339 22.7232C5.53903 23.3432 5.51316 23.9842 5.68898 24.5661C6.46758 27.1509 8.13518 28.8482 10.6471 29.611C11.2419 29.7957 11.8608 29.8917 12.4837 29.8958C13.3552 29.8953 14.2142 29.6888 14.9907 29.2933C15.9272 28.8291 16.7797 28.2121 17.5132 27.4676C18.5947 26.3887 19.6144 25.2497 20.5675 24.056C21.6872 22.6322 22.5689 21.4001 23.2333 20.0142C23.5628 19.3555 23.8262 18.666 24.0197 17.9556C24.3149 16.8008 23.8188 15.8791 22.6584 15.4255C22.6249 15.41 22.5928 15.3911 22.5628 15.3694L22.5432 15.3569C22.5558 15.3265 22.5684 15.2961 22.5809 15.2655C22.6397 15.1304 22.6913 14.9925 22.7359 14.8521C22.7641 14.7581 22.7944 14.6639 22.8249 14.5695C22.9313 14.2734 23.0075 13.9673 23.0523 13.656C23.0829 13.4438 23.0689 13.2275 23.0114 13.021C22.9539 12.8144 22.8541 12.6221 22.7182 12.4562C22.5674 12.2885 22.3839 12.1535 22.1789 12.0594C21.974 11.9653 21.752 11.9142 21.5264 11.9091L21.1896 11.8894C21.1986 11.7963 21.2082 11.7048 21.2177 11.6133C21.2467 11.3371 21.2742 11.0769 21.2805 10.8121C21.2975 10.026 20.8247 9.47712 20.0467 9.37946C19.901 9.36687 19.7542 9.3715 19.6095 9.39327C19.532 9.40205 19.4301 9.41211 19.3315 9.41412H19.304C19.0818 9.41474 19.0277 9.39516 19.0163 9.38587C18.6796 8.90462 18.1769 8.71106 17.7228 8.54914C17.7381 8.50169 17.7533 8.45548 17.7684 8.41004C17.8246 8.25182 17.8707 8.09021 17.9065 7.92615L17.9389 7.76297C18.012 7.45579 18.0528 7.14184 18.0607 6.8262C18.0521 6.0103 17.4814 5.44143 16.6408 5.4113C16.5138 5.40666 16.3871 5.40779 16.2604 5.40917H16.2162C16.2168 5.31929 16.2181 5.23207 16.2192 5.14558C16.2222 4.89453 16.2251 4.65779 16.2117 4.4223ZM7.46745 10.0149C7.94579 9.15228 8.44058 8.2603 8.9522 7.39871C9.5256 6.43293 10.1484 5.47406 10.7506 4.54657L11.0512 4.08364C11.1807 3.87725 11.3469 3.69632 11.5417 3.54981C11.705 3.43181 11.8626 3.39741 11.9734 3.4559C12.0801 3.51201 12.1386 3.65385 12.1341 3.84502C12.1289 4.17539 12.0692 4.50264 11.9574 4.81356C11.7466 5.37167 11.5045 5.91742 11.2321 6.44825C10.8294 7.24293 10.4133 8.04038 10.0111 8.81159L9.99428 8.84386C9.74513 9.32161 9.49672 9.79967 9.24907 10.2781L9.22599 10.3225C9.13099 10.4695 9.07714 10.6392 9.07002 10.8141C9.08301 10.9115 9.11759 11.0048 9.17122 11.0871C9.22487 11.1695 9.29623 11.2389 9.38008 11.2902C9.52161 11.3681 9.81319 11.2624 9.90386 11.1324C10.1407 10.7936 10.3526 10.438 10.5379 10.0685C11.3095 8.52353 12.3194 6.92085 13.7161 5.0247C13.9436 4.73486 14.2305 4.49703 14.5575 4.32716C14.7537 4.22109 14.9172 4.19674 15.0062 4.26063C15.0904 4.32113 15.1181 4.4724 15.0826 4.67487C14.9914 5.27912 14.823 5.86917 14.5814 6.43055C13.695 8.33265 12.6216 10.1419 11.3769 11.8317L11.3282 11.8977C11.2924 11.946 11.2565 11.9946 11.2234 12.0444L11.2004 12.0788C11.0768 12.2629 10.8902 12.541 11.1493 12.8206C11.2585 12.9492 11.4109 13.0337 11.5779 13.0582C11.745 13.0825 11.9152 13.0452 12.0567 12.9531C12.2739 12.8207 12.4558 12.6378 12.5869 12.4199C13.4697 10.9076 14.4069 9.29523 15.3069 7.67209C15.5957 7.15218 15.8987 6.8208 16.2912 6.59774C16.5525 6.44912 16.7001 6.43594 16.8004 6.55281C16.9035 6.69106 16.9485 6.86403 16.926 7.03495C16.8461 7.42692 16.7279 7.81013 16.5734 8.1791C16.5186 8.3008 16.4196 8.39709 16.2963 8.44834C15.5903 8.66361 15.1478 9.17223 14.8079 9.64081C13.6149 11.2883 12.3907 12.9969 11.1708 14.7192C10.9468 15.0358 10.7419 15.367 10.5236 15.7196C10.4559 15.829 10.3868 15.9407 10.3153 16.055L10.1754 15.6924C9.82568 14.8037 9.20327 14.0487 8.3975 13.5357C7.67679 13.0559 7.04449 13.0137 6.46518 13.4073C5.83413 13.8357 5.58322 14.4604 5.7196 15.2639C5.76293 15.5193 5.81266 15.7775 5.86227 16.0352C5.93309 16.4029 6.00646 16.7832 6.06033 17.159C6.16544 17.8918 6.06156 18.6025 5.95118 19.3565C5.89404 19.7482 5.83503 20.1524 5.8069 20.5647L5.79433 20.5612C5.74377 20.5515 5.69529 20.5331 5.65105 20.5067C4.65896 19.6732 4.03395 18.8155 3.73833 17.8845C3.55486 17.3061 3.54732 16.667 3.55624 15.9515C3.56503 15.2448 3.62203 14.5262 3.67704 13.8311C3.6955 13.5975 3.71396 13.3641 3.73078 13.1305C3.84023 11.9122 3.6804 10.6849 3.26262 9.53523L3.23588 9.46445C3.1162 9.15215 3.00318 8.85703 3.28172 8.65933C3.36924 8.59431 3.47531 8.55912 3.58436 8.55893C3.76457 8.55893 3.9753 8.65318 4.21052 8.83921C5.24029 9.65348 5.58875 10.5001 5.30632 11.5037C5.23474 11.7577 5.19558 12.0727 5.53151 12.2537C5.70016 12.3446 6.0293 12.4321 6.34062 11.9966C6.46807 11.8104 6.58383 11.6164 6.68722 11.4158C6.7249 11.3465 6.76256 11.2777 6.80023 11.2088C7.0216 10.8155 7.2414 10.4211 7.45966 10.0257L7.46745 10.0149ZM6.84056 22.6626C6.86417 22.4124 6.89078 22.129 6.92845 21.8491C7.03557 21.0598 7.15013 20.2578 7.26102 19.4824L7.37792 18.6615C7.52469 17.5805 7.45898 16.4813 7.18452 15.4254L7.17685 15.3944C7.10491 15.1459 7.06207 14.8898 7.04916 14.6314C7.04151 14.5647 7.04913 14.497 7.07148 14.4338C7.09383 14.3705 7.13029 14.313 7.17811 14.266C7.23878 14.2286 7.30707 14.2051 7.37796 14.1974C7.44884 14.1899 7.52049 14.1982 7.58775 14.2218C7.70498 14.249 7.81876 14.2896 7.92685 14.3425C8.90425 14.8237 9.53151 16.3119 9.19345 17.347C9.06511 17.7399 8.97481 18.1387 9.39237 18.3224C9.71235 18.4632 10.0553 18.3098 10.333 17.9001C10.6712 17.4011 11.0061 16.8959 11.3301 16.4084C11.8575 15.6148 12.4018 14.7942 12.9582 14.0011C13.8942 12.6673 14.8761 11.3494 15.8837 10.0043C16.0532 9.77852 16.2708 9.59321 16.5207 9.46181C16.576 9.4252 16.6402 9.40399 16.7063 9.40037C16.7725 9.39674 16.8386 9.41084 16.8975 9.44122C16.9488 9.48492 16.9879 9.54135 17.0106 9.60485C17.0335 9.66835 17.0391 9.73671 17.0272 9.8031C17.0119 10.1324 16.9387 10.4563 16.811 10.7602C16.5407 11.3629 16.2345 11.9488 15.8942 12.5149C15.3497 13.4157 14.7821 14.3233 14.2326 15.2019C13.9604 15.637 13.6886 16.0726 13.4175 16.5086C13.4014 16.5344 13.3836 16.5609 13.3656 16.5876C13.2756 16.695 13.2198 16.8269 13.2056 16.9662C13.2026 17.177 13.2773 17.3814 13.4155 17.5407C13.4539 17.5805 13.5008 17.6114 13.5526 17.631C13.6045 17.6504 13.6601 17.6582 13.7152 17.6537C13.7896 17.6427 13.8605 17.6158 13.9237 17.5751C13.9868 17.5345 14.0405 17.4809 14.0813 17.4178C14.1308 17.3489 14.1807 17.2803 14.2308 17.2117C14.42 16.9525 14.6154 16.6845 14.7823 16.4027C15.7242 14.8122 16.8891 13.2396 18.5602 11.3041C18.851 10.9864 19.2094 10.7379 19.609 10.5769C19.8108 10.4918 19.9712 10.4819 20.0496 10.5496C20.1279 10.6173 20.1419 10.7782 20.0872 10.9903C19.9443 11.6066 19.7281 12.2036 19.4429 12.7685C18.4823 14.5324 17.2703 16.2706 15.6299 18.238C15.5956 18.2792 15.56 18.3191 15.5196 18.3645C15.4707 18.4194 15.4218 18.4744 15.3759 18.5316L15.3599 18.5516C15.2013 18.7488 14.984 19.0188 15.2429 19.3549C15.3604 19.4906 15.5202 19.5826 15.6967 19.6159C15.873 19.6491 16.0555 19.6216 16.2142 19.538C16.448 19.3987 16.6516 19.2141 16.8131 18.9952C17.6664 17.8063 18.5135 16.6011 19.331 15.4127C19.558 15.0829 19.7621 14.7316 19.9615 14.3885C20.0202 14.2874 20.0791 14.1866 20.1382 14.0858C20.3901 13.6587 20.7728 13.3238 21.2297 13.1307C21.4406 13.0366 21.6153 13.0011 21.7822 13.1341C21.9368 13.2575 21.9656 13.4301 21.8676 13.6468C21.7788 13.8431 21.6939 14.0425 21.6085 14.243C21.3861 14.8131 21.1121 15.3619 20.79 15.8824C20.2403 16.709 19.6299 17.5149 19.0395 18.2942L19.0286 18.3087C18.7434 18.6852 18.4487 19.0744 18.1643 19.4614C17.8848 19.8417 17.6289 20.2215 17.4034 20.5911C17.2985 20.7629 17.2109 21.0039 17.28 21.1652C17.3795 21.3974 17.5528 21.5902 17.7732 21.7137C17.952 21.8042 18.2673 21.5292 18.3567 21.4092C18.717 20.9253 19.0709 20.4286 19.4131 19.9484C19.6375 19.6332 19.863 19.3188 20.0894 19.0051L20.2903 18.7268C20.5937 18.305 20.9074 17.8688 21.2505 17.4733C21.4821 17.2174 21.7597 17.0071 22.0689 16.8536C22.1256 16.8153 22.1905 16.7906 22.2583 16.7816C22.3261 16.7724 22.3951 16.7791 22.4599 16.801C22.5555 16.8501 22.6211 16.9741 22.6496 17.1596C22.6923 17.4363 22.6691 17.7191 22.582 17.9852C22.3753 18.5901 22.1311 19.1817 21.8507 19.7562C21.2023 21.0806 20.3954 22.3215 19.4479 23.4516L19.408 23.4989C19.2731 23.6483 19.1525 23.8101 19.0482 23.9822C18.3981 25.1336 17.4377 26.0573 16.5088 26.9508L16.4794 26.9791C15.8146 27.6047 15.0302 28.0897 14.1732 28.4047C13.2502 28.757 12.2409 28.7458 11.0881 28.3711C9.08131 27.7184 7.72955 26.3611 6.95546 24.2209L6.94491 24.1918C6.90328 24.0911 6.87419 23.9857 6.85828 23.878C6.84069 23.688 6.83316 23.4958 6.82537 23.2734L6.82424 23.2442C6.82085 23.1541 6.81734 23.0587 6.81244 22.9657C6.82186 22.8739 6.83128 22.7742 6.8412 22.6687L6.7769 22.6627L6.84056 22.6626Z" fill="black"/>
<path d="M7.24524 0.0474854C7.23067 0.0474854 7.21659 0.0474854 7.1867 0.0474854L7.06112 0.0535072C7.00034 0.0589047 6.92008 0.0660533 6.84059 0.0786056C5.52858 0.279919 4.2725 0.75069 3.15152 1.46124C1.69236 2.36671 0.617358 3.777 0.131279 5.42351C0.0635676 5.65738 0.0228188 5.89824 0.00983707 6.14138C-0.00171642 6.31196 -0.0284469 6.71138 0.374042 6.7656C0.394857 6.76839 0.415831 6.76981 0.436832 6.76986C0.702186 6.76986 0.782559 6.52334 0.830531 6.37598C0.83769 6.35389 0.844829 6.33205 0.852238 6.31108C0.894182 6.19284 0.932494 6.07259 0.970921 5.95322C1.03509 5.75238 1.10152 5.54375 1.18566 5.34856C2.11383 3.19823 3.84801 1.86782 6.4866 1.28163C6.6157 1.25289 6.74942 1.23141 6.87889 1.21145C7.04215 1.18635 7.21007 1.15924 7.38526 1.11455C7.6358 1.05079 7.97886 0.963924 7.99983 0.554972C8.00263 0.503166 7.99485 0.45134 7.97693 0.402648C7.95901 0.353958 7.93135 0.30943 7.89562 0.271793C7.77042 0.136228 7.53973 0.0567741 7.24524 0.0474854Z" fill="black"/>
<path d="M24.006 25.8201C23.2072 26.5238 22.3217 27.1228 21.3712 27.6025C21.2326 27.6807 21.1012 27.7708 20.9782 27.8718C20.9201 27.9167 20.8603 27.9628 20.7969 28.0083L20.6877 28.0867L20.7837 28.1806C20.8696 28.2757 20.9739 28.3526 21.0904 28.4066C21.2068 28.4605 21.3329 28.4903 21.4611 28.4944C21.6839 28.4819 21.901 28.4197 22.0964 28.312C23.0216 27.8742 23.9205 27.256 24.9252 26.3664C25.9482 25.4608 26.6187 24.2719 26.918 22.8323C27.0206 22.3387 26.9615 21.803 26.9095 21.3293C26.8593 20.875 26.6323 20.6256 26.2339 20.5878L26.1757 20.5824L26.138 20.627C25.8839 20.9242 25.8931 21.2483 25.9011 21.5354C25.9028 21.5941 25.9045 21.6524 25.9038 21.7098C25.8823 23.34 25.2622 24.6846 24.006 25.8201Z" fill="black"/>
<path d="M24.2894 21.2032C24.2457 21.1656 24.1942 21.1379 24.1386 21.1224C24.0831 21.1068 24.0248 21.1037 23.9678 21.1131C23.5014 21.179 23.496 21.5636 23.4925 21.818C23.4925 21.8538 23.4915 21.8895 23.4901 21.9241C23.4816 22.4577 23.348 22.9819 23.1001 23.4545C22.8522 23.9272 22.4969 24.3351 22.0628 24.6458C21.7789 24.8465 21.4829 25.0294 21.1764 25.1933C21.0526 25.2629 20.9289 25.3325 20.8069 25.4043C20.757 25.4322 20.7055 25.4573 20.6527 25.4797C20.5347 25.5228 20.4271 25.5905 20.3371 25.6784C20.2334 25.7943 20.1087 26.05 20.1707 26.2307C20.2313 26.4064 20.49 26.5254 20.6534 26.543C20.6734 26.5452 20.6937 26.5462 20.7139 26.5462C20.8756 26.5349 21.0337 26.4938 21.1805 26.4251L21.2006 26.4171C21.9391 26.1324 22.6123 25.7013 23.1798 25.15C23.5985 24.7554 23.9343 24.2812 24.1676 23.7554C24.4008 23.2294 24.5269 22.6624 24.5385 22.0873V22.0464C24.5385 22.0156 24.5385 21.9848 24.5385 21.9541C24.5293 21.5932 24.4433 21.3335 24.2894 21.2032Z" fill="black"/>
<path d="M3.43954 6.76132L3.49357 6.71111C3.51667 6.6899 3.53688 6.67345 3.55572 6.65852C3.59769 6.63081 3.63119 6.59208 3.65254 6.54656C4.237 5.05347 5.32279 4.06383 6.88163 3.60529C7.11512 3.52138 7.33297 3.3991 7.52621 3.24354C7.58598 3.19442 7.63036 3.12916 7.654 3.05553C7.67765 2.9819 7.67957 2.90301 7.65958 2.82831C7.6238 2.76011 7.57467 2.69982 7.51509 2.65102C7.4555 2.60221 7.38667 2.56591 7.31274 2.54425C7.16525 2.51661 7.01297 2.53088 6.8732 2.58542C5.69085 2.96488 4.81569 3.46998 4.11884 4.17504C3.66838 4.63082 3.33908 5.20873 3.08251 5.99362C3.00716 6.22345 2.95556 6.55008 3.37136 6.73158L3.43954 6.76132Z" fill="black"/>
</g>
<defs>
<clipPath id="clip0_224_60">
<rect width="27" height="30" fill="white"/>
</clipPath>
</defs>
</svg>
