<svg width="17" height="20" viewBox="0 0 17 20" fill="none" xmlns="http://www.w3.org/2000/svg">
<path d="M16.4688 8.889C16.4688 14.4776 10.6101 18.2429 8.93968 19.2029C8.66351 19.3616 8.33649 19.3616 8.06032 19.2029C6.38991 18.2429 0.53125 14.4776 0.53125 8.889C0.53125 3.889 4.39238 0.555664 8.5 0.555664C12.75 0.555664 16.4688 3.889 16.4688 8.889Z" stroke="#7E8C9A"/>
<path d="M12.25 8.88878C12.25 11.0886 10.5502 12.8332 8.5 12.8332C6.44978 12.8332 4.75 11.0886 4.75 8.88878C4.75 6.68901 6.44978 4.94434 8.5 4.94434C10.5502 4.94434 12.25 6.68901 12.25 8.88878Z" stroke="#7E8C9A"/>
</svg>
