<svg width="30" height="20" viewBox="0 0 50 40" fill="none" xmlns="http://www.w3.org/2000/svg">
<path d="M0.0156909 20.2939C-0.0538732 20.869 0.109594 21.4477 0.47171 21.9087C0.833878 22.3698 1.36658 22.6773 1.95806 22.7668C2.96751 23.0165 4.00593 23.1394 5.04779 23.1326C9.03776 22.9841 13.0915 22.7915 17.0119 22.6054L20.852 22.4245C21.5104 22.3937 22.1688 22.3598 22.9128 22.3218L23.5856 22.2878L23.6117 22.5108C23.6547 22.8757 23.6866 23.144 23.711 23.4133C23.8134 24.5438 23.9146 25.6743 24.0145 26.8048C24.2674 29.6533 24.5294 32.5974 24.8249 35.4922C24.8506 36.4645 25.138 37.4131 25.6587 38.2451C26.309 39.095 27.243 39.7014 28.3026 39.9615C28.4367 39.9866 28.573 39.9995 28.7097 40C29.7874 40 30.7206 39.185 31.057 37.8931C31.3427 36.9182 31.4732 35.9069 31.4439 34.894C31.3046 32.8523 31.091 30.786 30.8837 28.788C30.804 28.0175 30.7257 27.2467 30.6488 26.4755L30.1844 21.7944L30.3826 21.7728C30.7493 21.7317 31.0288 21.701 31.3089 21.6742L35.2112 21.3006C38.7368 20.9651 42.3818 20.6181 45.9647 20.242C46.9596 20.1913 47.9262 19.9062 48.7813 19.4116C49.1639 19.1277 49.4732 18.7618 49.6842 18.3426C49.8957 17.9235 50.0041 17.4627 49.9999 16.9963C49.8994 16.1628 49.0545 15.3333 48.3115 14.9155C47.5532 14.5825 46.7146 14.4567 45.8877 14.5517C43.3947 14.6437 40.44 14.7675 37.43 14.9854C35.5061 15.1247 33.6211 15.3103 31.6262 15.5071C30.9367 15.5756 30.2411 15.6441 29.5393 15.7126L29.5132 15.3355C29.4755 14.7928 29.4442 14.3395 29.4176 13.8857L29.1996 10.1344C29.054 7.61117 28.9049 5.08829 28.7522 2.56581C28.6629 1.12693 27.8828 0.226028 26.5547 0.0245838C26.2828 -0.0172467 26.0051 -0.00558023 25.7379 0.0587072C25.4707 0.122995 25.2197 0.238567 24.9998 0.398695C24.6757 0.650551 24.4061 0.961711 24.2066 1.31444C24.0071 1.66718 23.8815 2.05449 23.837 2.45425C23.6958 3.5257 23.6356 4.60574 23.6568 5.68563C23.6436 8.34346 23.6457 11.0018 23.6478 13.7321V16.4258C22.8645 16.5075 22.1024 16.5887 21.3552 16.6679C19.4128 16.8734 17.5784 17.0703 15.7401 17.2332C11.2607 17.6274 6.69841 17.9886 2.43582 18.32C0.590166 18.4644 0.0996566 19.4733 0.0156909 20.2939Z" fill="#1C1C1C"/>
</svg>
