<svg width="45" height="45" viewBox="0 0 45 45" fill="none" xmlns="http://www.w3.org/2000/svg">
<path d="M25 28L24.6655 28.3716L24.2526 28L24.6655 27.6284L25 28ZM43 27.5C43.2761 27.5 43.5 27.7239 43.5 28C43.5 28.2761 43.2761 28.5 43 28.5L43 27.5ZM34.6655 37.3716L24.6655 28.3716L25.3345 27.6284L35.3345 36.6284L34.6655 37.3716ZM24.6655 27.6284L34.6655 18.6284L35.3345 19.3716L25.3345 28.3716L24.6655 27.6284ZM25 27.5L43 27.5L43 28.5L25 28.5L25 27.5Z" fill="#7E8C9A"/>
<path d="M20 17L20.3345 17.3716L20.7474 17L20.3345 16.6284L20 17ZM2 16.5C1.72386 16.5 1.5 16.7239 1.5 17C1.5 17.2761 1.72386 17.5 2 17.5L2 16.5ZM10.3345 26.3716L20.3345 17.3716L19.6655 16.6284L9.66552 25.6284L10.3345 26.3716ZM20.3345 16.6284L10.3345 7.62835L9.66552 8.37165L19.6655 17.3716L20.3345 16.6284ZM20 16.5L2 16.5L2 17.5L20 17.5L20 16.5Z" fill="#7E8C9A"/>
</svg>
