<svg width="24" height="24" viewBox="0 0 24 24" fill="none" xmlns="http://www.w3.org/2000/svg">
<g clip-path="url(#clip0_296_64)">
<path d="M5.65294 16.3997C7.36263 16.7051 9.06773 16.5675 10.8661 15.9788C11.9149 15.6436 12.9151 15.1625 13.8395 14.5487C14.0133 14.7493 14.1855 14.9487 14.3559 15.1472C14.7743 15.6338 15.1703 16.0934 15.5844 16.5546C17.608 18.8087 19.8034 20.952 21.9266 23.0248C22.3125 23.4017 22.6982 23.7788 23.0838 24.1561C23.386 24.4424 23.7179 24.6927 24.0735 24.9025C24.1613 24.9511 24.2599 24.975 24.3593 24.972C24.4632 24.9736 24.5663 24.9512 24.661 24.9062C24.7122 24.8796 24.7577 24.8424 24.7949 24.797C24.832 24.7517 24.8601 24.699 24.8773 24.6423C24.8976 24.5747 24.905 24.5036 24.8988 24.4329C24.8926 24.3624 24.8731 24.2939 24.8414 24.231C24.6734 23.8663 24.4681 23.5214 24.2292 23.2022C23.844 22.728 23.4342 22.2757 23.0016 21.8477C21.9942 20.8357 20.9657 19.8115 19.971 18.8211C19.2813 18.1344 18.592 17.4472 17.9033 16.7594C17.1924 16.0487 16.5002 15.3505 15.7673 14.6103C15.4689 14.309 15.1684 14.006 14.8662 13.7014L14.9054 13.6568C14.9623 13.5922 15.0065 13.5419 15.0535 13.4946C16.1991 12.3431 16.8271 10.9025 16.9203 9.21327C17.0821 6.2798 16.1296 3.78955 14.0895 1.81085C13.09 0.818336 11.7933 0.211042 10.4152 0.0899938C9.07482 -0.0438535 7.72234 0.115646 6.44507 0.558206C4.4869 1.24952 2.82467 2.57578 1.50477 4.50025C0.36753 6.1583 -0.0882957 7.99804 0.149969 9.96838C0.305377 11.254 0.806607 12.4724 1.77498 13.919C2.69008 15.2854 3.95834 16.0968 5.65294 16.3997ZM7.67794 2.07123C8.13345 2.03108 8.60447 1.98967 9.06702 1.97378C9.14538 1.97124 9.22301 1.96992 9.29987 1.96985C11.4082 1.96985 13.0283 2.96275 14.1178 4.92366C15.0929 6.67832 15.3688 8.3599 14.9613 10.0644C14.8216 10.7035 14.5427 11.301 14.146 11.8107C13.6537 12.4322 13.0553 12.9541 12.3807 13.3504C10.8406 14.258 9.10831 14.7569 7.33783 14.8026C7.16804 14.7832 6.99783 14.7659 6.82763 14.7486C6.45253 14.7107 6.06457 14.6713 5.68875 14.6076C4.7546 14.4614 3.90576 13.961 3.3061 13.2032C2.57527 12.3182 2.04765 11.2725 1.76304 10.1449C1.43663 8.83785 1.55559 7.45386 2.09977 6.22749C2.70732 4.82675 3.51426 3.79326 4.56681 3.06805C5.40906 2.48786 6.17691 2.18946 6.98304 2.12929C7.21477 2.11202 7.44651 2.09157 7.67794 2.07123Z" fill="#010101"/>
</g>
<defs>
<clipPath id="clip0_296_64">
<rect width="24" height="24" fill="white"/>
</clipPath>
</defs>
</svg>
