<svg width="30" height="30" viewBox="0 0 30 30" fill="none" xmlns="http://www.w3.org/2000/svg">
<g clip-path="url(#clip0_589_60)">
<path d="M28.472 12.0417C28.1441 12.0478 27.8203 12.046 27.5602 12.0444L27.3875 12.0435L25.7462 8.95122C25.8433 8.83685 25.9451 8.7199 26.0491 8.60014C26.3537 8.2497 26.6685 7.88717 26.96 7.49607C27.327 7.00394 27.2967 6.43417 26.8809 6.00939L26.8545 5.98231C25.8151 4.91994 24.7402 3.82144 23.6346 2.79177C23.3205 2.49924 23.0434 2.36926 22.7662 2.38126C22.4732 2.39436 22.1832 2.57139 21.8539 2.93801C21.6156 3.20311 21.3853 3.46833 21.1415 3.74923C21.0618 3.84124 20.981 3.93412 20.8994 4.02791C20.1719 3.28624 19.2604 2.84333 17.9747 2.60504C17.9747 2.5301 17.9762 2.45591 17.9771 2.38244C17.9802 2.14538 17.9831 1.92157 17.9718 1.69284C17.9062 0.373935 17.5358 0.0126966 16.2479 0.0123291H16.2375C15.4313 0.0123291 14.6128 0.0409746 13.8213 0.0687705C13.4448 0.0818725 13.0694 0.0951956 12.6934 0.105481C12.1152 0.1214 11.7605 0.442097 11.6947 1.00842C11.6517 1.37895 11.6235 1.74904 11.5986 2.07561C11.5907 2.18006 11.5832 2.27981 11.5757 2.37311L8.66824 4.02965C8.6086 3.95618 8.54775 3.88037 8.48605 3.80311C8.28528 3.55295 8.0777 3.29408 7.853 3.04306C7.53175 2.68404 7.22143 2.50259 6.90406 2.48863C6.59483 2.477 6.28318 2.61927 5.95172 2.93029C5.00605 3.81768 4.10374 4.70444 3.27006 5.56599C2.58759 6.27093 2.55503 6.86398 3.15406 7.68267C3.36758 7.9741 3.60527 8.24961 3.7962 8.471C3.85183 8.53553 3.90394 8.59572 3.95106 8.65144L2.65438 12.1657C2.51993 12.178 2.38341 12.1892 2.24555 12.2004C1.86721 12.2315 1.47601 12.2636 1.08699 12.3163C0.378038 12.4121 0.101961 12.7256 0.102204 13.4344C0.102204 14.8021 0.116533 15.9407 0.145319 17.0174C0.156007 17.4179 0.267503 17.7142 0.476896 17.8979C0.69309 18.0877 1.00026 18.1572 1.41735 18.1098C1.65188 18.0835 1.88569 18.0528 2.11962 18.0219L2.18095 18.0137C2.18242 18.0272 2.18599 18.0403 2.19152 18.0527L3.65787 21.2722C3.46913 21.4182 3.28006 21.5635 3.09067 21.7084C2.88386 21.8671 2.67738 22.026 2.47123 22.1852C1.86771 22.653 1.75547 23.1862 2.13746 23.7704C2.76345 24.7272 3.49949 25.8326 4.31532 26.8417C5.03751 27.7356 5.62329 27.7994 6.63649 27.0966C7.05819 26.804 7.47783 26.5089 7.90063 26.211L8.39593 25.8626C9.49901 26.7453 10.599 27.1483 11.8202 27.1303C11.809 27.2345 11.7981 27.3336 11.7875 27.429C11.7559 27.7138 11.7286 27.9599 11.7115 28.2112C11.667 28.8685 11.7548 29.2765 11.9961 29.5353C12.2312 29.7872 12.6148 29.9003 13.2366 29.9003H13.2767C14.1196 29.894 14.9764 29.879 15.8049 29.8647C16.1469 29.8586 16.4888 29.8528 16.8308 29.8473C17.3078 29.8397 17.6446 29.7191 17.8615 29.4784C18.0784 29.2376 18.1651 28.8874 18.1256 28.4083C18.0988 28.0789 18.0691 27.7498 18.0422 27.4539L18.0179 27.1863L20.5644 26.1052L20.6171 26.1776C20.7116 26.3074 20.8078 26.4394 20.9028 26.5723C20.9503 26.6387 20.9966 26.706 21.0428 26.7734C21.1259 26.8942 21.2119 27.0194 21.3046 27.1383C21.7608 27.7237 22.2632 27.8478 22.9341 27.5416C23.155 27.4483 23.3629 27.3258 23.5521 27.1777C23.7693 26.9957 23.9867 26.814 24.2046 26.6325C25.0927 25.8916 26.0111 25.1254 26.8837 24.3356C27.2809 23.9761 27.4633 23.6752 27.4756 23.3596C27.4877 23.0379 27.3177 22.7084 26.9242 22.2915C26.6368 21.9873 26.3469 21.6857 26.0807 21.4089L25.8134 21.1304L27.4948 17.8967C27.5632 17.8901 27.6377 17.8831 27.717 17.8757C27.9824 17.8512 28.3122 17.8203 28.6378 17.7814C29.3322 17.6988 29.5794 17.4702 29.7399 16.7627C30.0668 15.3225 29.8128 13.9171 29.5554 12.8536C29.4244 12.3116 29.0491 12.0352 28.472 12.0417ZM25.5884 17.0454C25.234 18.4879 24.7334 19.4932 23.9652 20.305C23.6538 20.6341 23.6651 21.0953 23.9963 21.5701C24.297 22.0013 24.6107 22.4196 24.9427 22.8626C25.0607 23.0201 25.1808 23.1802 25.303 23.3448L22.4328 25.6443C22.3529 25.5483 22.2744 25.4535 22.1977 25.3599C21.972 25.0866 21.759 24.8285 21.534 24.5748C20.9353 23.8997 20.6213 23.9274 19.8526 24.3725C19.2427 24.7122 18.6004 24.9888 17.9355 25.1983C16.4094 25.7114 16.2946 26.3968 16.2869 27.4651C16.286 27.6005 16.2768 27.7403 16.2671 27.8884C16.2646 27.9258 16.2621 27.9641 16.2597 28.0032H13.4298L13.4143 27.6605C13.4001 27.3412 13.3864 27.0343 13.371 26.7277C13.3274 25.8678 13.1471 25.5566 12.2215 25.5229C10.8349 25.4726 9.66855 25.0635 8.65559 24.2721C8.27021 23.9706 7.82422 23.9958 7.29199 24.3486C6.89519 24.6118 6.5047 24.8835 6.09114 25.1714C5.93949 25.277 5.7841 25.385 5.62499 25.4952L3.81601 23.0492C3.92791 22.9547 4.03835 22.8606 4.14734 22.7671C4.46094 22.4989 4.75694 22.2456 5.0686 22.0043C5.58285 21.6065 5.62549 21.3729 5.28638 20.8133C4.67132 19.7982 4.03609 18.5685 3.98763 17.1447C3.97087 16.646 3.68059 16.3841 3.12528 16.3661C2.79868 16.3554 2.46941 16.3577 2.11949 16.3599C1.99549 16.3608 1.86806 16.3618 1.73592 16.3621L1.61265 13.9661C1.79168 13.9471 1.96488 13.9272 2.13358 13.908C2.58298 13.8566 3.00808 13.8082 3.42953 13.7885C3.94998 13.764 4.25446 13.4851 4.33462 12.9582C4.56831 11.4236 4.99937 10.2343 5.69107 9.21507C5.80413 9.07028 5.86626 8.89178 5.86776 8.70752C5.86925 8.52326 5.81002 8.34368 5.69933 8.19704C5.44443 7.82471 5.18848 7.45356 4.93148 7.08352L4.69549 6.74224L7.01253 4.36465C7.10387 4.45444 7.19524 4.54427 7.28666 4.63406C7.55387 4.89696 7.82956 5.16855 8.10588 5.43243C8.64806 5.94965 8.80245 5.87886 9.36832 5.49658C10.0837 5.01303 10.8491 4.51121 11.6499 4.15611C12.3386 3.85084 12.9545 3.49614 12.9252 2.52206C12.9286 2.31631 12.9562 2.1117 13.0075 1.9125C13.024 1.83499 13.0406 1.75539 13.056 1.67311H16.2836C16.2844 1.74009 16.2857 1.80777 16.2869 1.87597C16.2915 2.11928 16.2963 2.3707 16.2788 2.61682C16.2103 3.57523 16.5284 3.98225 17.4133 4.06833C18.3485 4.15944 19.1664 4.57847 20.0636 5.42753C20.541 5.87888 20.8045 5.96381 21.3331 5.5416C21.6853 5.25997 22.0118 4.96281 22.3571 4.64775C22.4755 4.53984 22.5951 4.43149 22.7157 4.32267L25.0299 6.77924C24.9754 6.83692 24.917 6.89798 24.8556 6.96214C24.6178 7.21145 24.3481 7.4941 24.0812 7.78981C23.367 8.58169 23.3626 8.87959 24.0523 9.66326C24.7831 10.4722 25.298 11.4552 25.5485 12.5198C25.6883 13.1355 26.0391 13.4349 26.6525 13.4625C26.9469 13.4756 27.2412 13.4918 27.573 13.5096L27.9573 13.5301L28.0938 16.1024H27.7349C27.415 16.1017 27.1263 16.1014 26.8375 16.1038C26.0847 16.1101 25.7577 16.3566 25.5884 17.0454Z" fill="black"/>
<path d="M15.9878 7.22056C14.7963 7.10947 13.5956 7.28029 12.4812 7.71944C11.3667 8.15859 10.3694 8.85393 9.56847 9.75013C8.76756 10.6463 8.18519 11.7187 7.86775 12.8817C7.55031 14.0449 7.50654 15.2665 7.73993 16.4496C8.35038 19.3653 9.84978 21.2096 12.324 22.088C13.0535 22.3419 13.8208 22.4671 14.5925 22.4587C15.2346 22.4534 15.8751 22.3907 16.5064 22.2715C20.5874 21.5356 22.8344 18.6477 22.8325 14.1396V14.1368C22.783 12.7266 22.3167 11.3632 21.4934 10.222C20.1967 8.47391 18.3444 7.46399 15.9878 7.22056ZM20.8959 16.0339C20.411 18.4781 18.8818 19.8982 16.2209 20.3751C15.3595 20.5294 14.2296 20.6633 13.1294 20.3285C11.2135 19.7449 10.0634 18.3867 9.61355 16.1766C9.54315 15.7873 9.49707 15.394 9.47557 14.999C9.46173 14.8153 9.448 14.6326 9.42942 14.4504C9.42602 13.716 9.56976 12.9884 9.85204 12.3112C10.1343 11.6342 10.5493 11.0215 11.0721 10.51C12.1858 9.42841 13.7503 8.86683 15.4669 8.92145C17.3201 8.98267 18.7883 9.65459 19.8305 10.9174C20.9591 12.2851 21.3076 13.959 20.8959 16.0339Z" fill="black"/>
</g>
<defs>
<clipPath id="clip0_589_60">
<rect width="30" height="30" fill="white"/>
</clipPath>
</defs>
</svg>
