<svg width="25" height="25" viewBox="0 0 35 35" fill="none" xmlns="http://www.w3.org/2000/svg">
<path d="M17.5 2.1875L17.1464 1.83395L17.5 1.48039L17.8536 1.83395L17.5 2.1875ZM18 21.875C18 22.1511 17.7761 22.375 17.5 22.375C17.2239 22.375 17 22.1511 17 21.875L18 21.875ZM6.20895 12.7714L17.1464 1.83395L17.8536 2.54105L6.91605 13.4786L6.20895 12.7714ZM17.8536 1.83395L28.7911 12.7714L28.0839 13.4786L17.1464 2.54105L17.8536 1.83395ZM18 2.1875L18 21.875L17 21.875L17 2.1875L18 2.1875Z" fill="#F47123"/>
<path d="M2.1875 26.25L2.1875 28.4375C2.1875 30.8537 4.14625 32.8125 6.5625 32.8125L28.4375 32.8125C30.8537 32.8125 32.8125 30.8537 32.8125 28.4375V26.25" stroke="#F47123"/>
</svg>
