<svg width="60" height="60" viewBox="0 0 60 60" fill="none" xmlns="http://www.w3.org/2000/svg">
<rect x="0.5" y="0.5" width="59" height="59" rx="5.5" stroke="#1C1C1C"/>
<g clip-path="url(#clip0_222_107)">
<path d="M14.2872 27.0521C13.964 27.1722 13.6525 27.3238 13.3567 27.5049C13.2637 27.5529 13.1832 27.6234 13.1218 27.7105C13.0605 27.7976 13.0202 27.8987 13.0042 28.0054C12.9894 28.2006 13.0882 28.3959 13.2969 28.5856C13.4705 28.7333 13.6577 28.8628 13.8556 28.9724C14.0074 29.0627 14.162 29.1481 14.3166 29.2333C14.538 29.3553 14.7669 29.4808 14.9801 29.6202C17.8718 31.5037 20.5032 33.1736 23.3892 34.5229C23.383 34.6304 23.3762 34.7376 23.3692 34.8443C23.3496 35.1461 23.3294 35.4579 23.329 35.7657C23.3283 36.2306 23.3266 36.6957 23.3237 37.1612C23.3163 38.637 23.3086 40.1631 23.3563 41.6638C23.3735 42.2048 23.5601 42.5918 23.8818 42.7531C24.22 42.9222 24.6547 42.8237 25.106 42.4744C25.2687 42.3484 25.4355 42.2068 25.6157 42.0416C26.4062 41.316 27.1956 40.5892 27.9926 39.8553L28.7149 39.1902C28.7203 39.1945 28.7256 39.1987 28.7305 39.2032L29.3984 39.801C30.1587 40.4813 30.9447 41.1845 31.712 41.8835C31.9306 42.0822 32.1504 42.2798 32.3715 42.4763C33.0453 43.0785 33.7427 43.7012 34.3689 44.3685C34.7008 44.7216 35.0235 44.8876 35.4112 44.8876C35.5784 44.8851 35.7445 44.8595 35.9052 44.8115C36.4709 44.6513 36.836 44.2916 37.0888 43.6464C38.0418 41.2157 39.017 38.7467 39.9601 36.3592C40.7342 34.398 41.5078 32.4366 42.2807 30.475C43.9459 26.2638 45.3824 21.9587 46.5835 17.5799C46.729 17.0719 46.8313 16.5517 46.8892 16.0251C46.9086 15.9031 46.9014 15.7781 46.8682 15.6594C46.8349 15.5407 46.7764 15.4312 46.6971 15.3392C46.6015 15.2494 46.4878 15.183 46.3642 15.1449C46.2408 15.1068 46.1107 15.0979 45.9835 15.119C45.815 15.14 45.649 15.1791 45.4882 15.2355L45.4665 15.2423C45.1052 15.3545 44.743 15.4634 44.3808 15.5725C43.5391 15.8257 42.6689 16.0876 41.8245 16.3861C35.7253 18.5438 29.5397 20.8928 23.4393 23.368C21.6798 24.0815 19.8883 24.8013 18.1557 25.497C16.8655 26.0142 15.576 26.5326 14.2872 27.0521ZM25.8976 33.7039C26.2334 33.4119 26.5517 33.1359 26.8784 32.8766C28.1593 31.8586 29.4413 30.8422 30.7245 29.8278C33.2458 27.8317 35.8532 25.7677 38.4033 23.7181C39.1831 23.0918 39.9233 22.3879 40.6389 21.7083C40.8848 21.4753 41.1303 21.2413 41.3778 21.0105C41.5754 20.8264 41.9057 20.5184 41.7226 19.9166C41.7166 19.897 41.7068 19.8788 41.6938 19.8633C41.6808 19.8478 41.6648 19.8353 41.6469 19.8265C41.629 19.8178 41.6095 19.813 41.5897 19.8124C41.5699 19.8118 41.5502 19.8154 41.5319 19.823C41.4554 19.8552 41.3815 19.8836 41.3103 19.9104C41.1619 19.9631 41.0176 20.0269 40.8781 20.1013C36.1455 22.7761 32.0287 26.2836 28.0476 29.6759C27.1472 30.4429 26.2986 31.2341 25.401 32.0709C25.0199 32.4264 24.6349 32.7834 24.246 33.1419L15.3664 28.1351C15.4176 28.1022 15.4713 28.0739 15.5271 28.0503C16.9552 27.4906 18.3827 26.9288 19.8097 26.365C23.3038 24.9874 26.9175 23.5627 30.4864 22.2074C33.6647 21.0004 36.9173 19.8311 40.0626 18.7003C41.1085 18.3244 42.1542 17.9477 43.1996 17.5704C43.6046 17.4239 44.0135 17.3093 44.4464 17.1881C44.5611 17.156 44.6763 17.1236 44.792 17.0907C43.0493 22.8395 40.8261 28.4782 38.6751 33.9343C37.5447 36.8012 36.3768 39.7636 35.2847 42.7243C32.3164 40.2368 29.4371 37.6071 26.6518 35.0628C26.2756 34.7188 25.8986 34.3747 25.5208 34.0304C25.6493 33.919 25.7745 33.8103 25.8972 33.7039H25.8976ZM27.5474 38.0891L25.0009 40.3351L24.799 35.4467L27.5474 38.0891Z" fill="black"/>
</g>
<defs>
<clipPath id="clip0_222_107">
<rect width="34" height="30" fill="white" transform="translate(13 15)"/>
</clipPath>
</defs>
</svg>
