<svg width="25" height="30" viewBox="0 0 35 40" fill="none" xmlns="http://www.w3.org/2000/svg">
<g clip-path="url(#clip0_351_177)">
<path d="M3.16684 9.15819C2.52353 9.05838 1.99149 8.9993 1.47087 8.88975C0.538807 8.69379 0.0621558 8.25784 0.0507427 7.64207C0.0389493 6.99546 0.534599 6.44241 1.49957 6.32407C2.8777 6.15507 4.273 6.10775 5.66254 6.04041C6.41389 6.00372 7.16862 6.03399 8.03848 6.03399C7.91237 5.47289 7.82207 5.03581 7.71517 4.60278C7.48992 3.73528 7.60966 2.81783 8.05073 2.03122C8.64041 0.939478 9.53899 0.274355 10.8212 0.233071C13.1631 0.157718 15.5058 0.115277 17.8495 0.105736C19.401 0.0985801 20.953 0.168289 22.5046 0.203885C22.7262 0.209023 22.9486 0.208107 23.1694 0.223887C24.752 0.336548 25.7648 1.12021 26.1287 2.61599C26.2934 3.29324 26.3145 4.0039 26.3883 4.70078C26.4263 5.06041 26.4374 5.4226 26.4644 5.83838C26.7197 5.87553 26.977 5.89819 27.2351 5.90627C28.9446 5.85966 30.6535 5.79104 32.3632 5.75507C32.8036 5.73678 33.2445 5.77953 33.6723 5.88206C34.0158 5.95957 34.3244 6.14164 34.5522 6.40137C34.7803 6.66107 34.9156 6.98465 34.938 7.32425C34.9972 7.67438 34.9428 8.03355 34.7826 8.3528C34.6222 8.67206 34.3637 8.93586 34.0423 9.1083C33.7769 9.26427 33.4859 9.37948 33.1559 9.53764C33.1559 10.4268 33.1245 11.3087 33.161 12.1878C33.378 17.4037 33.6765 22.6189 33.4754 27.841C33.4028 29.7294 33.2702 31.6237 33.0025 33.4938C32.854 34.5325 32.4201 35.545 32.0252 36.536C31.8384 37.0112 31.5434 37.4399 31.1618 37.7903C30.7804 38.141 30.322 38.4043 29.821 38.5611C28.8952 38.8674 27.9447 39.0991 26.9793 39.2536C26.0994 39.3624 25.2139 39.4228 24.3271 39.4345C20.8794 39.5997 17.4328 39.7956 13.9832 39.9034C12.529 39.963 11.0721 39.9022 9.62859 39.7221C5.91497 39.218 3.89654 37.2441 3.30877 33.6591C3.13462 32.6661 3.03778 31.6617 3.01908 30.6547C2.97977 24.8854 2.96554 19.1158 2.97646 13.3463C2.97836 11.9767 3.09761 10.6068 3.16684 9.15819ZM6.01046 9.38113C6.18166 12.229 6.30848 26.172 6.65049 30.3703C6.7513 31.6083 7.04692 32.8345 7.29991 34.0573C7.55214 35.276 8.40602 35.9848 9.63007 36.1756C10.9996 36.389 12.3926 36.5947 13.7736 36.5848C17.2243 36.56 20.6755 36.4454 24.1234 36.2949C25.4435 36.2373 26.7569 35.998 28.0691 35.8123C28.3082 35.7833 28.5319 35.6823 28.7078 35.5235C28.884 35.3646 29.0034 35.1562 29.0494 34.9279C29.2311 34.2199 29.466 33.5151 29.5528 32.7949C30.0509 28.6586 29.9484 24.5068 29.8168 20.3566C29.7131 17.0929 29.5925 13.8298 29.4782 10.5665C29.4677 10.2729 29.4468 9.97819 29.4327 9.7215C21.3601 9.60792 14.151 9.49581 6.01101 9.38113H6.01046ZM11.0892 5.96829C15.0684 6.10718 18.9686 6.10113 22.894 5.92443V3.38684C18.9252 3.2584 15.0299 3.12041 11.0892 3.49271V5.96829Z" fill="#FC7557"/>
<path d="M23.9517 22.0588C23.9102 20.088 23.813 18.0906 23.7188 16.1587L23.7169 16.122C23.6831 15.4215 23.65 14.7211 23.6173 14.0207C23.6028 13.776 23.5551 13.5341 23.4756 13.3012C23.3011 12.7691 22.9076 12.4886 22.3982 12.535C22.0896 12.5596 21.5582 12.7128 21.4636 13.4603C21.4484 13.5948 21.4408 13.73 21.4408 13.8653C21.4104 16.2946 21.1804 24.3262 21.1781 24.408C21.1351 26.3388 21.0906 28.3346 21.0602 30.3144C21.0444 30.8597 21.0954 31.4049 21.2123 31.9384C21.2688 32.221 21.4269 32.4753 21.6586 32.6566C21.8905 32.8379 22.1811 32.9344 22.4794 32.9293C22.5144 32.9293 22.5498 32.928 22.5853 32.9256C22.88 32.9177 23.1621 32.8089 23.3814 32.619C23.6005 32.4289 23.7426 32.17 23.7822 31.8882C23.8866 31.3018 23.9439 30.7084 23.9534 30.1133L23.9637 28.7478C23.9804 26.5566 23.9987 24.2911 23.9517 22.0588Z" fill="#FC7557"/>
<path d="M13.7717 12.6638H13.7708C13.581 12.6631 13.3939 12.7069 13.2255 12.7915C13.0572 12.876 12.9126 12.9988 12.8043 13.1491C12.6209 13.4656 12.5175 13.8193 12.5023 14.1816C12.4699 14.6724 12.436 15.1631 12.4014 15.6656C12.2825 17.3943 12.1593 19.1819 12.1064 20.9461C12.0303 23.4551 12.0047 26.0046 11.979 28.4703C11.9713 29.225 11.963 29.9797 11.9541 30.7344C11.9536 31.0433 11.9984 31.3507 12.0872 31.6476C12.2947 32.3569 12.7941 32.7977 13.3902 32.7977H13.4092C14.0337 32.7872 14.5328 32.3116 14.6802 31.5857C14.7529 31.2015 14.7836 30.8112 14.7718 30.421C14.7387 28.4173 14.6981 26.4142 14.6597 24.5111L14.6249 22.7903L14.6647 20.7467C14.7081 18.5329 14.7489 16.4403 14.7818 14.3374C14.8013 13.9848 14.7472 13.632 14.6226 13.2999C14.5462 13.1344 14.4285 12.9897 14.2801 12.8787C14.1316 12.7677 13.957 12.6939 13.7717 12.6638Z" fill="#FC7557"/>
</g>
<defs>
<clipPath id="clip0_351_177">
<rect width="35" height="40" fill="white"/>
</clipPath>
</defs>
</svg>
