<svg width="289" height="29" viewBox="0 0 289 29" fill="none" xmlns="http://www.w3.org/2000/svg">
<line y1="27.5" x2="289.002" y2="27.5" stroke="#CFD6DD" stroke-width="3"/>
<path fill-rule="evenodd" clip-rule="evenodd" d="M3.125 0V0.712568L7.5032 2.68438C7.69454 2.77056 7.81636 2.96447 7.81241 3.17662C7.80846 3.38877 7.67952 3.57789 7.4851 3.6567L5.20833 4.57955V4.75H8.10115C13.2881 4.75 18.2142 7.05443 21.5787 11.0547L23.1144 12.8806C24.2671 14.2512 23.3059 16.3611 21.5288 16.3611H19.7917C19.7917 16.9916 19.5189 17.5576 19.0864 17.9444H25V19H0V17.4167C0.575297 17.4167 1.04167 16.9441 1.04167 16.3611H0V15.3056H21.5288C22.4174 15.3056 22.8979 14.2506 22.3216 13.5653L22.0097 13.1944H14.0335C13.6292 13.1944 13.2305 13.0991 12.8689 12.9159L12.377 12.6667C11.4948 12.2197 10.9375 11.3059 10.9375 10.3064V9.50908C10.9375 8.33087 11.7083 7.29541 12.8262 6.97173L13.5946 6.74928C11.8478 6.13124 9.99289 5.80556 8.10115 5.80556H0V4.75H4.16667V4.22222C4.16667 4.00641 4.29633 3.81234 4.49407 3.73219L5.95243 3.14107L2.39264 1.53785C2.20455 1.45314 2.08333 1.26413 2.08333 1.05556V0H3.125ZM13.2053 17.9444H1.37803C1.81054 17.5576 2.08333 16.9916 2.08333 16.3611H12.5C12.5 16.9916 12.7728 17.5576 13.2053 17.9444ZM15.1583 7.39432L13.1124 7.98667C12.4416 8.18088 11.9792 8.80215 11.9792 9.50908V10.3064C11.9792 10.9061 12.3135 11.4543 12.8429 11.7226L13.3347 11.9717C13.5517 12.0817 13.7909 12.1389 14.0335 12.1389H21.1219L20.7859 11.7394C19.2201 9.87771 17.2949 8.40625 15.1583 7.39432ZM13.5417 16.3611C13.5417 16.9441 14.008 17.4167 14.5833 17.4167C15.1586 17.4167 15.625 16.9441 15.625 16.3611H13.5417ZM16.6667 16.3611C16.6667 16.9441 17.133 17.4167 17.7083 17.4167C18.2836 17.4167 18.75 16.9441 18.75 16.3611H16.6667ZM16.1458 17.7575C16.2034 17.8236 16.265 17.8861 16.3303 17.9444H15.9614C16.0266 17.8861 16.0882 17.8236 16.1458 17.7575Z" fill="#CFD6DD"/>
<path d="M7.8125 10.0278C7.8125 9.15333 7.11294 8.44445 6.25 8.44445H0V7.38889H6.25C7.68824 7.38889 8.85417 8.57036 8.85417 10.0278C8.85417 11.4852 7.68824 12.6667 6.25 12.6667H0V11.6111H6.25C7.11294 11.6111 7.8125 10.9022 7.8125 10.0278Z" fill="#CFD6DD"/>
<path d="M22.7641 0.154584C22.5607 -0.0515265 22.2309 -0.0515265 22.0275 0.154584C21.8241 0.360694 21.8241 0.694864 22.0275 0.900974L23.2218 2.11111H17.1875C16.8999 2.11111 16.6667 2.34741 16.6667 2.63889C16.6667 2.93037 16.8999 3.16667 17.1875 3.16667H23.2218L22.0275 4.37681C21.8241 4.58292 21.8241 4.91709 22.0275 5.1232C22.2309 5.32931 22.5607 5.32931 22.7641 5.1232L24.8475 3.01209C25.0508 2.80598 25.0508 2.4718 24.8475 2.26569L22.7641 0.154584Z" fill="#CFD6DD"/>
<path fill-rule="evenodd" clip-rule="evenodd" d="M267.125 0.712568V0H266.083V1.05556C266.083 1.26413 266.205 1.45314 266.393 1.53785L269.952 3.14107L268.494 3.73219C268.296 3.81234 268.167 4.00641 268.167 4.22222V4.75H264V5.80556H272.101C273.993 5.80556 275.848 6.13124 277.595 6.74928L276.826 6.97173C275.708 7.29541 274.937 8.33087 274.937 9.50908V10.3064C274.937 11.3059 275.495 12.2197 276.377 12.6667L276.869 12.9159C277.23 13.0991 277.629 13.1944 278.033 13.1944H286.01L286.322 13.5653C286.898 14.2506 286.417 15.3056 285.529 15.3056H264V16.3611H265.042C265.042 16.9441 264.575 17.4167 264 17.4167V19H289V17.9444H283.086C283.519 17.5576 283.792 16.9916 283.792 16.3611H285.529C287.306 16.3611 288.267 14.2512 287.114 12.8806L285.579 11.0547C282.214 7.05443 277.288 4.75 272.101 4.75H269.208V4.57955L271.485 3.6567C271.68 3.57789 271.808 3.38877 271.812 3.17662C271.816 2.96447 271.695 2.77056 271.503 2.68438L267.125 0.712568ZM265.378 17.9444H277.205C276.773 17.5576 276.5 16.9916 276.5 16.3611H266.083C266.083 16.9916 265.811 17.5576 265.378 17.9444ZM277.112 7.98667L279.158 7.39432C281.295 8.40625 283.22 9.87771 284.786 11.7394L285.122 12.1389H278.033C277.791 12.1389 277.552 12.0817 277.335 11.9717L276.843 11.7226C276.314 11.4543 275.979 10.9061 275.979 10.3064V9.50908C275.979 8.80215 276.442 8.18088 277.112 7.98667ZM278.583 17.4167C278.008 17.4167 277.542 16.9441 277.542 16.3611H279.625C279.625 16.9441 279.159 17.4167 278.583 17.4167ZM281.708 17.4167C281.133 17.4167 280.667 16.9441 280.667 16.3611H282.75C282.75 16.9441 282.284 17.4167 281.708 17.4167ZM280.33 17.9444C280.265 17.8861 280.203 17.8236 280.146 17.7575C280.088 17.8236 280.027 17.8861 279.961 17.9444H280.33Z" fill="#CFD6DD"/>
<path d="M270.25 8.44445C271.113 8.44445 271.812 9.15333 271.812 10.0278C271.812 10.9022 271.113 11.6111 270.25 11.6111H264V12.6667H270.25C271.688 12.6667 272.854 11.4852 272.854 10.0278C272.854 8.57036 271.688 7.38889 270.25 7.38889H264V8.44445H270.25Z" fill="#CFD6DD"/>
<path d="M288 0V4.40054H289V0H288Z" fill="#CFD6DD"/>
<path d="M288 4.977V6H289V4.977H288Z" fill="#CFD6DD"/>
</svg>
