<svg width="25" height="25" viewBox="0 0 25 25" fill="none" xmlns="http://www.w3.org/2000/svg">
<g clip-path="url(#clip0_161_360)">
<path d="M15.4847 24.8481C13.1657 24.8481 10.8465 24.8357 8.52756 24.8521C6.66316 24.8652 4.79959 24.9245 2.93539 24.9387C2.41092 24.9387 1.88717 24.8955 1.36855 24.8098C0.251391 24.6335 -0.193098 23.9069 0.178936 22.7345C0.43334 21.9493 0.765799 21.1972 1.17027 20.492C2.88393 17.4715 5.37734 15.5101 8.36558 14.2465C9.98785 13.5463 11.7121 13.1737 13.4551 13.1467C16.061 13.1219 18.4599 13.8481 20.5086 15.7358C21.9071 17.0069 23.0501 18.5828 23.8651 20.3637C24.092 20.8615 24.3477 21.3477 24.5294 21.8649C24.7039 22.3424 24.8258 22.8412 24.8928 23.3503C24.9823 24.1132 24.5952 24.6191 23.9017 24.715C23.4178 24.7872 22.9303 24.8273 22.4418 24.8352C20.1229 24.8469 17.8037 24.8407 15.4847 24.8407V24.8481ZM23.1035 22.9862C23.1125 22.905 23.1117 22.8229 23.1013 22.742C22.3626 20.6356 21.3419 18.7317 19.765 17.2405C18.5485 16.09 17.1839 15.2621 15.5629 15.0375C13.695 14.7789 11.8442 14.8331 10.0185 15.398C6.56443 16.4666 3.80859 18.5702 1.92141 21.9615C1.70668 22.3472 1.53624 22.7625 1.33878 23.1766C1.39879 23.2127 1.46141 23.2432 1.52598 23.2681C2.17216 23.4241 2.81655 23.3323 3.46824 23.2923C4.82259 23.2089 6.18065 23.1731 7.53732 23.1655C11.9758 23.1403 16.4144 23.1422 20.8529 23.1189C21.5917 23.1146 22.3293 23.0337 23.1038 22.9862H23.1035Z" fill="black"/>
<path d="M12.9536 0.0815775C14.7404 0.0337868 16.2332 0.970274 17.3665 2.67225C17.6337 3.07353 17.956 3.44608 18.1512 3.8862C18.5872 4.86992 18.9484 5.88049 18.7166 7.02863C18.4991 8.10677 18.2154 9.14494 17.5832 10.0287C16.4589 11.5984 15.0255 12.569 13.1937 12.8102C11.5447 13.0276 9.97683 12.7593 8.51295 11.9073C7.00522 11.0299 6.14738 9.61005 5.83594 7.78575C5.36719 5.03947 6.67557 2.57644 8.73998 1.26691C9.98923 0.474234 11.3382 0.074717 12.9536 0.0815775ZM16.8686 5.6611C16.9505 4.96877 16.6982 4.41586 16.3072 3.91203C16.1547 3.7154 16.0167 3.50446 15.858 3.31434C15.2832 2.6262 14.6278 2.08179 13.7559 1.93772C12.5337 1.71561 11.2789 1.89622 10.1503 2.45678C8.73945 3.16922 7.68701 4.25539 7.44453 6.06143C7.16169 8.16829 8.15182 10.0538 9.91273 10.6762C10.9679 11.0384 12.0821 11.1448 13.1784 10.9881C14.677 10.7997 16.4411 9.10806 16.6793 7.37178C16.7572 6.80387 16.8064 6.23111 16.8686 5.66053V5.6611Z" fill="black"/>
</g>
<defs>
<clipPath id="clip0_161_360">
<rect width="25" height="25" fill="white"/>
</clipPath>
</defs>
</svg>
